<svg width="161" height="56" viewBox="0 0 161 56" fill="none" xmlns="http://www.w3.org/2000/svg">
<rect x="1.04754" y="1.55577" width="158.645" height="52.5474" rx="19.0531" fill="#0B0D0B"/>
<rect x="1.04754" y="1.55577" width="158.645" height="52.5474" rx="19.0531" stroke="#04FCCF" stroke-width="2.00559"/>
<path d="M64.0555 31.0217V19.5017H66.1835V24.1897H68.8875L72.8235 19.5017H75.1275V20.1097L70.8075 25.2617L75.1435 30.4137V31.0217H72.8235L68.8875 26.3337H66.1835V31.0217H64.0555ZM78.9175 31.0217C78.5122 31.0217 78.1442 30.9203 77.8135 30.7177C77.4828 30.515 77.2162 30.2483 77.0135 29.9177C76.8108 29.587 76.7095 29.219 76.7095 28.8137V23.9497C76.7095 23.5443 76.8108 23.1763 77.0135 22.8457C77.2162 22.515 77.4828 22.2483 77.8135 22.0457C78.1442 21.843 78.5122 21.7417 78.9175 21.7417H83.9255C84.3308 21.7417 84.6988 21.843 85.0295 22.0457C85.3708 22.2483 85.6375 22.515 85.8295 22.8457C86.0322 23.1763 86.1335 23.5443 86.1335 23.9497V28.8137C86.1335 29.219 86.0322 29.587 85.8295 29.9177C85.6375 30.2483 85.3762 30.515 85.0455 30.7177C84.7148 30.9203 84.3415 31.0217 83.9255 31.0217H78.9175ZM78.9975 28.9257H83.8455C83.8988 28.9257 83.9415 28.9097 83.9735 28.8777C84.0162 28.835 84.0375 28.787 84.0375 28.7337V24.0297C84.0375 23.9763 84.0162 23.9337 83.9735 23.9017C83.9415 23.859 83.8988 23.8377 83.8455 23.8377H78.9975C78.9442 23.8377 78.8962 23.859 78.8535 23.9017C78.8215 23.9337 78.8055 23.9763 78.8055 24.0297V28.7337C78.8055 28.787 78.8215 28.835 78.8535 28.8777C78.8962 28.9097 78.9442 28.9257 78.9975 28.9257ZM81.9895 20.8137V18.7017H84.1015V20.8137H81.9895ZM78.7415 20.8137V18.7017H80.8375V20.8137H78.7415ZM87.8356 34.7017V21.7417H95.0516C95.457 21.7417 95.825 21.843 96.1556 22.0457C96.497 22.2483 96.7636 22.515 96.9556 22.8457C97.1583 23.1763 97.2596 23.5443 97.2596 23.9497V28.8137C97.2596 29.219 97.1583 29.587 96.9556 29.9177C96.7636 30.2483 96.497 30.515 96.1556 30.7177C95.825 30.9203 95.457 31.0217 95.0516 31.0217H89.9316V34.7017H87.8356ZM90.1236 28.9257H94.9716C95.025 28.9257 95.0676 28.9097 95.0996 28.8777C95.1423 28.835 95.1636 28.787 95.1636 28.7337V24.0297C95.1636 23.9763 95.1423 23.9337 95.0996 23.9017C95.0676 23.859 95.025 23.8377 94.9716 23.8377H90.1236C90.0703 23.8377 90.0223 23.859 89.9796 23.9017C89.9476 23.9337 89.9316 23.9763 89.9316 24.0297V28.7337C89.9316 28.787 89.9476 28.835 89.9796 28.8777C90.0223 28.9097 90.0703 28.9257 90.1236 28.9257Z" fill="#04FCCF"/>
</svg>
