<svg width="161" height="55" viewBox="0 0 161 55" fill="none" xmlns="http://www.w3.org/2000/svg">
<rect x="1.04754" y="1.10875" width="158.645" height="52.5474" rx="19.0531" fill="#0B0D0B"/>
<rect x="1.04754" y="1.10875" width="158.645" height="52.5474" rx="19.0531" stroke="#04FCCF" stroke-width="2.00559"/>
<path d="M45.1645 30.5746V19.0546H47.4845L51.6605 24.0306L55.8205 19.0546H58.1565V30.5746H56.0285V22.1266L51.6605 27.3266L47.2765 22.1426V30.5746H45.1645ZM62.1362 30.5746C61.7309 30.5746 61.3629 30.4733 61.0322 30.2706C60.7016 30.068 60.4349 29.8013 60.2322 29.4706C60.0296 29.14 59.9282 28.772 59.9282 28.3666V23.5026C59.9282 23.0973 60.0296 22.7293 60.2322 22.3986C60.4349 22.068 60.7016 21.8013 61.0322 21.5986C61.3629 21.396 61.7309 21.2946 62.1362 21.2946H67.1442C67.5496 21.2946 67.9176 21.396 68.2482 21.5986C68.5896 21.8013 68.8562 22.068 69.0482 22.3986C69.2509 22.7293 69.3522 23.0973 69.3522 23.5026V26.9906H62.0242V28.2866C62.0242 28.34 62.0402 28.388 62.0722 28.4306C62.1149 28.4626 62.1629 28.4786 62.2162 28.4786H69.3522V30.5746H62.1362ZM62.0242 25.1026H67.2562V23.5826C67.2562 23.5293 67.2349 23.4866 67.1922 23.4546C67.1602 23.412 67.1176 23.3906 67.0642 23.3906H62.2162C62.1629 23.3906 62.1149 23.412 62.0722 23.4546C62.0402 23.4866 62.0242 23.5293 62.0242 23.5826V25.1026ZM70.9286 30.5746V23.5026C70.9286 23.0973 71.03 22.7293 71.2326 22.3986C71.4353 22.068 71.702 21.8013 72.0326 21.5986C72.374 21.396 72.742 21.2946 73.1366 21.2946H78.2886V23.3906H73.2166C73.1633 23.3906 73.1153 23.412 73.0726 23.4546C73.0406 23.4866 73.0246 23.5293 73.0246 23.5826V30.5746H70.9286ZM84.1786 30.5746V21.2946H86.2746V30.5746H84.1786ZM84.1786 20.3666V18.2546H86.2746V20.3666H84.1786ZM88.1325 30.5746V21.2946H95.3485C95.7538 21.2946 96.1218 21.396 96.4525 21.5986C96.7938 21.8013 97.0605 22.068 97.2525 22.3986C97.4552 22.7293 97.5565 23.0973 97.5565 23.5026V30.5746H95.4605V23.5826C95.4605 23.5293 95.4392 23.4866 95.3965 23.4546C95.3645 23.412 95.3218 23.3906 95.2685 23.3906H90.4205C90.3672 23.3906 90.3192 23.412 90.2765 23.4546C90.2445 23.4866 90.2285 23.5293 90.2285 23.5826V30.5746H88.1325ZM99.2571 30.5746V20.4626C99.2571 20.0573 99.3585 19.6893 99.5611 19.3586C99.7638 19.028 100.03 18.7613 100.361 18.5586C100.692 18.356 101.06 18.2546 101.465 18.2546H104.969V20.3666H101.545C101.492 20.3666 101.444 20.388 101.401 20.4306C101.369 20.4626 101.353 20.5053 101.353 20.5586V21.2946H104.969V23.3906H101.353V30.5746H99.2571ZM108.417 30.5746C108.012 30.5746 107.644 30.4733 107.313 30.2706C106.983 30.068 106.716 29.8013 106.513 29.4706C106.311 29.14 106.209 28.772 106.209 28.3666V23.5026C106.209 23.0973 106.311 22.7293 106.513 22.3986C106.716 22.068 106.983 21.8013 107.313 21.5986C107.644 21.396 108.012 21.2946 108.417 21.2946H113.425C113.831 21.2946 114.199 21.396 114.529 21.5986C114.871 21.8013 115.137 22.068 115.329 22.3986C115.532 22.7293 115.633 23.0973 115.633 23.5026V28.3666C115.633 28.772 115.532 29.14 115.329 29.4706C115.137 29.8013 114.876 30.068 114.545 30.2706C114.215 30.4733 113.841 30.5746 113.425 30.5746H108.417ZM108.497 28.4786H113.345C113.399 28.4786 113.441 28.4626 113.473 28.4306C113.516 28.388 113.537 28.34 113.537 28.2866V23.5826C113.537 23.5293 113.516 23.4866 113.473 23.4546C113.441 23.412 113.399 23.3906 113.345 23.3906H108.497C108.444 23.3906 108.396 23.412 108.353 23.4546C108.321 23.4866 108.305 23.5293 108.305 23.5826V28.2866C108.305 28.34 108.321 28.388 108.353 28.4306C108.396 28.4626 108.444 28.4786 108.497 28.4786Z" fill="#04FCCF"/>
</svg>
