<svg width="754" height="143" viewBox="0 0 754 143" fill="none" xmlns="http://www.w3.org/2000/svg">
<path d="M82.4797 96.5L68.3796 79.7H74.7397L88.8997 96.44V96.5H82.4797ZM45.9996 96.5V53.36H81.9996C83.3196 53.36 84.5196 53.7 85.5996 54.38C86.7196 55.02 87.5997 55.88 88.2397 56.96C88.8797 58.04 89.1996 59.24 89.1996 60.56V73.22C89.1996 74.54 88.8797 75.74 88.2397 76.82C87.5997 77.9 86.7196 78.78 85.5996 79.46C84.5196 80.1 83.3196 80.42 81.9996 80.42H50.8596V96.5H45.9996ZM53.1996 75.5H81.9996C82.6397 75.5 83.1797 75.28 83.6197 74.84C84.0997 74.4 84.3397 73.86 84.3397 73.22V60.56C84.3397 59.92 84.0997 59.38 83.6197 58.94C83.1797 58.46 82.6397 58.22 81.9996 58.22H53.1996C52.5596 58.22 51.9996 58.46 51.5196 58.94C51.0796 59.38 50.8596 59.92 50.8596 60.56V73.22C50.8596 73.86 51.0796 74.4 51.5196 74.84C51.9996 75.28 52.5596 75.5 53.1996 75.5ZM95.6314 96.5V53.3H135.051V58.16H100.491V72.44H128.271V77.36H100.491V91.64H135.051V96.5H95.6314ZM158.489 96.5V58.16H139.289V53.3H182.489V58.16H163.349V96.5H158.489ZM223.456 96.5L209.356 79.7H215.716L229.876 96.44V96.5H223.456ZM186.976 96.5V53.36H222.976C224.296 53.36 225.496 53.7 226.576 54.38C227.696 55.02 228.576 55.88 229.216 56.96C229.856 58.04 230.176 59.24 230.176 60.56V73.22C230.176 74.54 229.856 75.74 229.216 76.82C228.576 77.9 227.696 78.78 226.576 79.46C225.496 80.1 224.296 80.42 222.976 80.42H191.836V96.5H186.976ZM194.176 75.5H222.976C223.616 75.5 224.156 75.28 224.596 74.84C225.076 74.4 225.316 73.86 225.316 73.22V60.56C225.316 59.92 225.076 59.38 224.596 58.94C224.156 58.46 223.616 58.22 222.976 58.22H194.176C193.536 58.22 192.976 58.46 192.496 58.94C192.056 59.38 191.836 59.92 191.836 60.56V73.22C191.836 73.86 192.056 74.4 192.496 74.84C192.976 75.28 193.536 75.5 194.176 75.5ZM243.568 96.5C242.248 96.5 241.028 96.18 239.908 95.54C238.828 94.9 237.968 94.04 237.328 92.96C236.688 91.84 236.368 90.62 236.368 89.3V60.5C236.368 59.18 236.688 57.98 237.328 56.9C237.968 55.78 238.828 54.9 239.908 54.26C241.028 53.62 242.248 53.3 243.568 53.3H272.368C273.688 53.3 274.888 53.62 275.968 54.26C277.088 54.9 277.968 55.78 278.608 56.9C279.248 57.98 279.568 59.18 279.568 60.5V89.3C279.568 90.62 279.248 91.84 278.608 92.96C277.968 94.04 277.088 94.9 275.968 95.54C274.888 96.18 273.688 96.5 272.368 96.5H243.568ZM243.568 91.64H272.368C273.008 91.64 273.548 91.42 273.988 90.98C274.468 90.5 274.708 89.94 274.708 89.3V60.5C274.708 59.86 274.468 59.32 273.988 58.88C273.548 58.4 273.008 58.16 272.368 58.16H243.568C242.928 58.16 242.368 58.4 241.888 58.88C241.448 59.32 241.228 59.86 241.228 60.5V89.3C241.228 89.94 241.448 90.5 241.888 90.98C242.368 91.42 242.928 91.64 243.568 91.64Z" fill="#0B0D0B"/>
<mask id="mask0_514_1490" style="mask-type:luminance" maskUnits="userSpaceOnUse" x="300" y="3" width="128" height="140">
<path d="M427.948 3H300.948V143H427.948V3Z" fill="white"/>
</mask>
<g mask="url(#mask0_514_1490)">
<path fill-rule="evenodd" clip-rule="evenodd" d="M332.261 23.5649C340.113 18.309 350.672 14.9888 364.425 14.6667L364.448 12.8721C350.425 13.2005 339.449 16.5912 331.257 22.075C323.06 27.5614 317.639 35.1078 314.545 43.6535C308.368 60.7121 311.459 81.7391 320.144 98.5395L320.171 98.5925L320.205 98.6414C323.203 102.933 325.857 106.336 328.909 108.937C331.981 111.555 335.428 113.337 339.984 114.443C340.158 114.486 340.336 114.507 340.513 114.507H389.218C389.466 114.507 389.716 114.465 389.952 114.384C399.152 111.198 403.598 105.96 408.808 98.5772L407.006 97.9041C401.858 105.2 398.013 109.692 389.361 112.688C389.317 112.703 389.267 112.712 389.218 112.712H340.513C340.478 112.712 340.443 112.707 340.411 112.7C336.113 111.656 332.925 109.998 330.08 107.573C327.224 105.139 324.687 101.912 321.718 97.665C313.221 81.197 310.28 60.7211 316.239 44.2626C319.216 36.0408 324.413 28.8182 332.261 23.5649Z" fill="black"/>
<path fill-rule="evenodd" clip-rule="evenodd" d="M396.591 23.5649C388.739 18.309 378.179 14.9888 364.427 14.6667V12.8721C378.449 13.2005 389.403 16.5912 397.595 22.075C405.791 27.5614 411.213 35.1078 414.307 43.6535C420.484 60.7121 417.493 81.7767 408.808 98.5772L407.006 97.9041C415.524 81.4276 418.578 60.7391 412.612 44.2626C409.636 36.0408 404.439 28.8182 396.591 23.5649Z" fill="black"/>
<path fill-rule="evenodd" clip-rule="evenodd" d="M346.418 34.5807C340.581 35.6137 335.503 37.6285 331.822 41.5104C328.869 44.624 326.988 49.4704 325.856 54.7958C324.728 60.0978 324.367 65.7553 324.367 70.3748C324.367 75.7594 325.403 82.0092 327.466 87.7555C329.532 93.5116 332.6 98.6813 336.606 101.992C340.178 104.943 344.525 106.269 349.41 106.845C353.347 107.309 357.556 107.281 361.937 107.252C363.019 107.244 364.112 107.237 365.214 107.237C366.319 107.237 367.412 107.244 368.49 107.252C372.838 107.281 376.961 107.309 380.812 106.845C385.591 106.27 389.841 104.947 393.416 101.992C397.402 98.6975 400.169 93.5507 401.935 87.7954C403.698 82.0523 404.44 75.7904 404.44 70.3748C404.44 65.7616 404.029 60.1055 402.851 54.8039C401.669 49.4789 399.738 44.6277 396.782 41.5104C393.084 37.6102 388.442 35.6053 383.085 34.5784C377.705 33.5468 371.67 33.5126 365.214 33.5126C358.761 33.5126 352.262 33.5463 346.418 34.5807ZM346.103 32.8135C352.13 31.7468 358.788 31.7178 365.214 31.7178C371.636 31.7178 377.847 31.7463 383.425 32.8158C389.028 33.8899 394.058 36.0244 398.092 40.2777C401.38 43.7459 403.402 48.9759 404.61 54.4157C405.823 59.8784 406.241 65.6705 406.241 70.3748C406.241 75.9362 405.482 82.3789 403.658 88.3204C401.838 94.2498 398.929 99.7681 394.567 103.373C390.63 106.626 386.004 108.029 381.028 108.627C377.052 109.106 372.782 109.077 368.422 109.047C367.357 109.039 366.287 109.032 365.214 109.032C364.144 109.032 363.072 109.039 362.003 109.047C357.612 109.076 353.258 109.106 349.199 108.628C344.127 108.029 339.396 106.629 335.456 103.373C331.113 99.7843 327.898 94.2888 325.769 88.3603C323.637 82.422 322.565 75.9676 322.565 70.3748C322.565 65.6767 322.932 59.8865 324.093 54.4238C325.25 48.9844 327.22 43.7496 330.512 40.2777C334.563 36.0062 340.069 33.8815 346.103 32.8135Z" fill="black"/>
<path d="M343.614 27.9039H382.401C383.26 27.9039 383.832 27.3066 383.941 26.6308C384.05 25.9506 383.687 25.2045 382.856 24.9553C370.351 21.2074 358.776 20.5567 343.185 24.9553C342.345 25.1922 341.969 25.9359 342.072 26.6212C342.176 27.3023 342.749 27.9039 343.614 27.9039Z" fill="black" stroke="black" stroke-width="3"/>
<path d="M322.837 121.422C348.215 141.095 381.622 143.233 405.632 121.074C405.919 120.809 405.905 120.445 405.718 120.207C405.532 119.972 405.183 119.866 404.851 120.065C390.436 128.676 378.116 133.101 365.41 133.207C352.701 133.313 339.577 129.1 323.552 120.378C323.209 120.19 322.859 120.311 322.685 120.558C322.6 120.68 322.555 120.834 322.577 120.993C322.599 121.155 322.687 121.306 322.837 121.422Z" fill="black" stroke="black"/>
<path d="M319.862 35.083V7.93555" stroke="black" stroke-width="2"/>
<path d="M319.863 8.38462C321.355 8.38462 322.565 7.17923 322.565 5.69231C322.565 4.20539 321.355 3 319.863 3C318.371 3 317.161 4.20539 317.161 5.69231C317.161 7.17923 318.371 8.38462 319.863 8.38462Z" fill="black"/>
<path d="M311.391 81.5463C307.235 70.1996 307.42 61.1889 311.34 51.0281C311.43 50.7952 311.306 50.5471 311.057 50.5749C309.398 50.7616 304.902 53.3148 302.602 57.2581C300.448 60.9506 300.347 71.8405 302.602 75.6057C305.005 79.6186 309.74 82.1453 311.202 81.9654C311.396 81.9416 311.458 81.7294 311.391 81.5463Z" fill="black" stroke="black" stroke-linecap="square"/>
<path d="M417.357 81.5908C421.514 70.2441 421.328 61.2338 417.408 51.073C417.318 50.8401 417.442 50.592 417.691 50.6198C419.35 50.8065 423.847 53.3597 426.147 57.3026C428.3 60.9955 428.401 71.8855 426.147 75.6502C423.744 79.6631 419.008 82.1898 417.547 82.0103C417.352 81.9861 417.29 81.7743 417.357 81.5908Z" fill="black" stroke="black" stroke-linecap="square"/>
<path d="M406.106 117.423H409.484C410.727 117.423 411.735 118.428 411.735 119.666V121.262C411.735 121.823 411.531 122.362 411.137 122.763C402.705 131.345 381.291 142.081 363.548 141.205C346.396 140.358 332.055 135.07 317.922 122.802C317.437 122.381 317.161 121.768 317.161 121.127V119.666C317.161 118.428 318.169 117.423 319.413 117.423H323.016" stroke="black" stroke-width="4"/>
<path d="M404.584 62.5917C404.564 62.5235 404.51 62.4701 404.441 62.4531C404.105 62.3705 403.771 62.2938 403.44 62.222C403.275 62.1861 403.138 62.0627 403.128 61.8949C403.106 61.5265 403.219 61.1518 403.26 60.7807C403.29 60.5043 403.548 60.2494 403.815 60.3302C404.088 60.4127 404.338 60.1682 404.263 59.894C403.471 57.0119 402.679 54.1298 401.884 51.2445C401.842 51.0879 401.717 50.9668 401.557 50.9363C401.174 50.8636 400.667 50.7985 400.283 50.7348C400.117 50.707 399.986 50.5831 399.942 50.4216C399.851 50.0913 399.76 49.7611 399.669 49.4313C399.58 49.1068 399.867 48.7977 400.199 48.8591C400.545 48.9224 400.945 48.9956 401.294 49.062C401.633 49.1266 401.716 48.9615 401.413 48.795C401.334 48.7515 401.258 48.7088 401.194 48.668C401.058 48.5818 400.905 48.4719 400.748 48.4338C390.932 46.0679 382.071 48.2134 373.916 51.866C365.69 55.5536 357.89 60.7762 349.664 64.4633C341.551 68.0997 333.031 70.2388 323.286 67.9328C323.103 67.8897 322.937 68.0571 322.987 68.2375C323.01 68.3218 323.077 68.3869 323.162 68.408C323.609 68.5175 324.055 68.6166 324.498 68.7068C324.665 68.7409 324.799 68.8652 324.845 69.0295C324.936 69.362 325.028 69.6945 325.119 70.027C325.208 70.3482 324.924 70.6655 324.591 70.6341C324.315 70.6076 324.017 70.5834 323.739 70.5542C323.398 70.5183 323.094 70.8454 323.181 71.1761C323.918 73.9864 324.431 76.6456 325.198 79.4779C325.241 79.634 325.365 79.7556 325.524 79.7897C326.107 79.9149 327.068 80.0814 327.655 80.1891C327.823 80.22 327.957 80.3448 328.002 80.509C328.094 80.8415 328.185 81.174 328.277 81.5065C328.366 81.8278 328.085 82.128 327.757 82.0602C327.236 81.9525 326.578 81.813 326.06 81.6999C325.753 81.6326 325.074 81.3719 325.247 81.6335C325.299 81.7125 325.543 81.9871 325.635 82.0095C335.505 84.4218 345.443 82.5444 353.629 78.8779C361.856 75.1904 369.655 69.9682 377.881 66.2806C386.018 62.6334 394.565 60.4926 404.346 62.8318C404.492 62.8668 404.624 62.7357 404.584 62.5917ZM398.295 48.4957C398.465 48.5248 398.603 48.6509 398.649 48.817C398.741 49.1517 398.833 49.4865 398.925 49.8212C399.013 50.1402 398.736 50.4413 398.409 50.3884C397.844 50.2973 397.283 50.2206 396.726 50.1582C396.541 50.1375 396.387 50.0079 396.337 49.8293C396.242 49.4842 396.147 49.1387 396.052 48.7932C395.968 48.489 396.217 48.1964 396.532 48.2345C397.115 48.3059 397.702 48.3929 398.295 48.4957ZM394.685 48.0604C394.874 48.073 395.034 48.2049 395.084 48.3875C395.18 48.7353 395.276 49.0835 395.372 49.4317C395.454 49.7315 395.213 50.0222 394.902 50.0043C394.354 49.972 393.809 49.954 393.267 49.9486C393.064 49.9468 392.886 49.8122 392.833 49.617C392.735 49.2612 392.637 48.9058 392.539 48.55C392.46 48.2646 392.676 47.9828 392.973 47.9877C393.54 47.9972 394.111 48.0209 394.685 48.0604ZM391.177 48.003C391.384 47.9963 391.567 48.1327 391.622 48.331C391.721 48.6886 391.819 49.0463 391.918 49.4034C391.995 49.6848 391.787 49.9639 391.494 49.9756C390.96 49.9971 390.427 50.0307 389.899 50.0761C389.681 50.0949 389.479 49.9567 389.421 49.7463C389.321 49.3841 389.221 49.022 389.122 48.6599C389.048 48.3916 389.234 48.1215 389.513 48.0986C390.064 48.0537 390.62 48.0218 391.177 48.003ZM387.765 48.283C387.986 48.2543 388.194 48.3934 388.253 48.6079C388.353 48.9709 388.453 49.3339 388.553 49.6965C388.626 49.9612 388.446 50.2282 388.173 50.2645C387.651 50.3341 387.133 50.4144 386.617 50.5059C386.385 50.5468 386.16 50.4068 386.098 50.1815C385.997 49.8158 385.897 49.4506 385.796 49.0853C385.727 48.8327 385.888 48.5742 386.147 48.5289C386.683 48.4351 387.223 48.3539 387.765 48.283ZM384.441 48.8659C384.674 48.8147 384.904 48.9556 384.967 49.184C385.068 49.5497 385.169 49.9154 385.27 50.2811C385.338 50.5311 385.181 50.7864 384.928 50.8425C384.416 50.9551 383.908 51.0785 383.402 51.2104C383.162 51.2732 382.915 51.1328 382.849 50.8941C382.748 50.5279 382.647 50.1613 382.546 49.7952C382.48 49.556 382.622 49.3083 382.863 49.2455C383.386 49.1091 383.912 48.9821 384.441 48.8659ZM381.195 49.7117C381.436 49.6395 381.688 49.7804 381.754 50.0218C381.855 50.3879 381.956 50.7545 382.058 51.1207C382.122 51.3572 381.985 51.6013 381.75 51.6722C381.246 51.8238 380.746 51.9836 380.246 52.15C380 52.2322 379.735 52.0922 379.666 51.8427C379.565 51.4765 379.464 51.1104 379.363 50.7447C379.301 50.5163 379.426 50.2784 379.651 50.2031C380.162 50.0316 380.678 49.8674 381.195 49.7117ZM378.012 50.7859C378.258 50.694 378.529 50.834 378.599 51.0866C378.7 51.4518 378.801 51.8175 378.901 52.1828C378.963 52.4081 378.842 52.6427 378.622 52.7244C378.127 52.9079 377.635 53.0982 377.143 53.2961C376.892 53.397 376.607 53.2584 376.535 52.9981C376.435 52.6342 376.335 52.2703 376.234 51.9059C376.175 51.6879 376.287 51.4595 376.497 51.3742C377 51.1705 377.505 50.9744 378.012 50.7859ZM374.072 52.4085C374.402 52.2618 374.732 52.1159 375.062 51.9728C375.312 51.8647 375.6 52.0033 375.672 52.2649C375.772 52.6288 375.872 52.9923 375.972 53.3562C376.032 53.5729 375.922 53.8 375.715 53.8888C375.346 54.0468 374.978 54.2088 374.613 54.373C374.391 54.4722 374.17 54.5727 373.949 54.6741C373.696 54.7907 373.397 54.6539 373.323 54.3851C373.223 54.0225 373.123 53.66 373.023 53.2974C372.966 53.0874 373.067 52.8662 373.265 52.7747C373.533 52.6508 373.803 52.5288 374.072 52.4085ZM371.675 53.5285C371.928 53.4051 372.23 53.5424 372.305 53.8125C372.404 54.1738 372.504 54.535 372.603 54.8962C372.661 55.1053 372.56 55.3256 372.364 55.4203C371.88 55.6536 371.398 55.8915 370.917 56.1342C370.662 56.263 370.352 56.127 370.276 55.8524C370.177 55.4925 370.078 55.1331 369.979 54.7732C369.922 54.5682 370.018 54.3515 370.209 54.2554C370.697 54.0086 371.186 53.7663 371.675 53.5285ZM368.641 55.06C368.894 54.9276 369.205 55.0631 369.281 55.3386C369.38 55.6981 369.48 56.0579 369.579 56.4178C369.635 56.6224 369.54 56.8378 369.352 56.9356C368.87 57.186 368.39 57.4391 367.91 57.6953C367.655 57.8313 367.339 57.6966 367.262 57.4184C367.163 57.0595 367.064 56.7009 366.966 56.342C366.91 56.1405 367.001 55.9274 367.186 55.8286C367.671 55.5693 368.155 55.3131 368.641 55.06ZM365.629 56.6709C365.884 56.5318 366.202 56.6664 366.279 56.9455C366.378 57.304 366.476 57.6625 366.575 58.0206C366.63 58.2216 366.54 58.4334 366.356 58.5335C365.877 58.7947 365.399 59.0567 364.921 59.3206C364.665 59.4615 364.344 59.3273 364.267 59.0464C364.169 58.6888 364.07 58.3311 363.971 57.9731C363.916 57.7738 364.006 57.5629 364.187 57.4624C364.666 57.1977 365.147 56.9338 365.629 56.6709ZM362.631 58.3244C362.886 58.1822 363.208 58.3163 363.285 58.5972C363.384 58.9544 363.482 59.312 363.58 59.6692C363.635 59.8684 363.546 60.0793 363.365 60.1798C362.886 60.4464 362.407 60.7129 361.928 60.9795C361.673 61.1213 361.352 60.9871 361.275 60.7062C361.176 60.3486 361.077 59.9909 360.979 59.6329C360.924 59.4336 361.013 59.2227 361.194 59.1222C361.674 58.8566 362.152 58.5905 362.631 58.3244ZM359.641 59.9847C359.897 59.8429 360.219 59.977 360.296 60.2579C360.394 60.6156 360.493 60.9727 360.591 61.3299C360.646 61.5291 360.557 61.74 360.376 61.8406C359.895 62.1062 359.415 62.3696 358.934 62.6321C358.679 62.7712 358.361 62.6366 358.284 62.3575C358.185 61.9994 358.087 61.6413 357.988 61.2832C357.933 61.0822 358.024 60.8695 358.207 60.7699C358.686 60.5106 359.164 60.2485 359.641 59.9847ZM356.65 61.6126C356.906 61.4762 357.223 61.6108 357.3 61.8895C357.399 62.248 357.497 62.6065 357.597 62.965C357.652 63.1665 357.561 63.3792 357.377 63.4779C356.894 63.7368 356.41 63.9931 355.925 64.247C355.671 64.3807 355.358 64.2452 355.282 63.9688C355.183 63.6094 355.084 63.25 354.985 62.8906C354.929 62.6868 355.023 62.4723 355.21 62.3741C355.691 62.1223 356.171 61.8688 356.65 61.6126ZM353.648 63.1746C353.903 63.0463 354.212 63.1822 354.288 63.4564C354.387 63.8167 354.486 64.1775 354.585 64.5378C354.642 64.7424 354.547 64.9587 354.357 65.0552C353.869 65.3024 353.379 65.5456 352.888 65.7848C352.635 65.9082 352.333 65.7713 352.259 65.5007C352.159 65.1395 352.059 64.7779 351.96 64.4166C351.902 64.2075 352.003 63.9877 352.198 63.893C352.681 63.6579 353.165 63.4182 353.648 63.1746ZM349.816 65.0054C350.141 64.8604 350.464 64.7119 350.787 64.5625C351.04 64.4449 351.338 64.5818 351.412 64.8501C351.512 65.2127 351.612 65.5757 351.712 65.9382C351.77 66.1482 351.668 66.369 351.47 66.4614C351.099 66.6338 350.728 66.8025 350.358 66.9694C350.131 67.0708 349.902 67.1718 349.674 67.2714C349.424 67.3809 349.136 67.2422 349.064 66.9797C348.964 66.6163 348.863 66.2523 348.763 65.8889C348.704 65.6726 348.813 65.446 349.02 65.3567C349.286 65.2405 349.551 65.1238 349.816 65.0054ZM347.425 66.0257C347.676 65.9243 347.961 66.063 348.032 66.3232C348.133 66.6876 348.233 67.0515 348.333 67.4154C348.394 67.6335 348.281 67.8624 348.071 67.9476C347.569 68.1522 347.065 68.3501 346.559 68.5395C346.312 68.6319 346.04 68.4919 345.971 68.2388C345.87 67.8731 345.77 67.5079 345.669 67.1422C345.607 66.9169 345.728 66.6827 345.947 66.6006C346.44 66.4161 346.934 66.2241 347.425 66.0257ZM344.321 67.1803C344.568 67.0964 344.836 67.2359 344.906 67.4868C345.006 67.852 345.107 68.2173 345.207 68.5825C345.27 68.81 345.145 69.0474 344.921 69.1237C344.409 69.2973 343.894 69.4638 343.377 69.6204C343.136 69.6936 342.884 69.5527 342.817 69.3108C342.716 68.9447 342.615 68.5785 342.514 68.2123C342.449 67.9759 342.587 67.7313 342.822 67.6604C343.324 67.5092 343.824 67.349 344.321 67.1803ZM341.17 68.1311C341.411 68.0679 341.659 68.2083 341.725 68.4475C341.825 68.8136 341.926 69.1802 342.027 69.5464C342.093 69.7851 341.952 70.0319 341.712 70.0952C341.189 70.2334 340.663 70.3608 340.135 70.4788C339.902 70.5309 339.67 70.3904 339.607 70.1611C339.506 69.795 339.405 69.4293 339.305 69.0636C339.236 68.815 339.392 68.5601 339.644 68.5036C340.155 68.3887 340.663 68.2648 341.17 68.1311ZM337.957 68.845C338.188 68.8038 338.414 68.9433 338.476 69.169C338.577 69.5343 338.677 69.9 338.778 70.2652C338.847 70.5179 338.686 70.7763 338.427 70.8221C337.891 70.9172 337.352 71.0025 336.811 71.0761C336.589 71.1061 336.38 70.9666 336.321 70.7516C336.221 70.3886 336.121 70.0256 336.021 69.6622C335.948 69.3983 336.127 69.1318 336.399 69.0945C336.922 69.0218 337.441 68.9379 337.957 68.845ZM334.677 69.2902C334.895 69.2704 335.098 69.4086 335.156 69.62C335.256 69.9825 335.356 70.3447 335.456 70.7072C335.53 70.9747 335.344 71.2443 335.067 71.2686C334.517 71.3161 333.962 71.3507 333.404 71.3718C333.197 71.3794 333.013 71.243 332.958 71.0438C332.859 70.6848 332.761 70.3263 332.662 69.9677C332.585 69.6877 332.791 69.41 333.082 69.3965C333.616 69.3723 334.147 69.3373 334.677 69.2902ZM326.296 70.9096C326.125 70.8804 325.987 70.7543 325.941 70.5874C325.848 70.2522 325.756 69.917 325.664 69.5814C325.576 69.2637 325.851 68.9626 326.178 69.0138C326.742 69.1013 327.303 69.1744 327.86 69.2341C328.045 69.2538 328.2 69.3839 328.25 69.563C328.345 69.9098 328.441 70.2563 328.536 70.6027C328.62 70.9056 328.373 71.1981 328.06 71.1618C327.476 71.094 326.888 71.0097 326.296 70.9096ZM329.902 71.3282C329.711 71.3166 329.55 71.1842 329.499 71.0007C329.403 70.6525 329.307 70.3043 329.211 69.9561C329.129 69.6572 329.369 69.3669 329.679 69.3839C330.227 69.4136 330.771 69.4293 331.311 69.432C331.515 69.4333 331.694 69.5679 331.748 69.7636C331.845 70.119 331.943 70.4743 332.041 70.8297C332.12 71.1151 331.905 71.3969 331.608 71.3924C331.043 71.3843 330.475 71.3632 329.902 71.3282ZM329.451 82.3878C329.279 82.3591 329.141 82.233 329.095 82.0661C329.003 81.7304 328.91 81.3952 328.818 81.06C328.73 80.7419 329.006 80.4413 329.333 80.492C329.897 80.5799 330.457 80.6526 331.014 80.7127C331.2 80.7325 331.355 80.8626 331.404 81.0416C331.499 81.3876 331.595 81.7336 331.69 82.0791C331.774 82.3829 331.526 82.6754 331.212 82.6386C330.63 82.5709 330.042 82.4874 329.451 82.3878ZM333.056 82.8042C332.865 82.7921 332.705 82.6602 332.655 82.4771C332.559 82.1284 332.463 81.7802 332.366 81.4316C332.284 81.1323 332.524 80.842 332.835 80.859C333.382 80.8891 333.926 80.9048 334.466 80.9075C334.67 80.9084 334.849 81.0434 334.903 81.2391C335.001 81.5949 335.099 81.9512 335.197 82.307C335.276 82.592 335.061 82.8733 334.765 82.8697C334.199 82.8625 333.63 82.8415 333.056 82.8042ZM336.56 82.8491C336.352 82.8572 336.167 82.7207 336.112 82.5206C336.014 82.1634 335.915 81.8063 335.817 81.4491C335.74 81.1682 335.947 80.8895 336.239 80.8765C336.773 80.8532 337.303 80.8173 337.83 80.7693C338.05 80.7495 338.253 80.8877 338.311 81.0991C338.41 81.4607 338.51 81.8229 338.61 82.185C338.684 82.4529 338.498 82.7225 338.22 82.7463C337.67 82.793 337.117 82.8271 336.56 82.8491ZM339.964 82.5529C339.743 82.5821 339.536 82.443 339.477 82.229C339.376 81.8646 339.276 81.5007 339.176 81.1368C339.103 80.8734 339.282 80.6068 339.554 80.5696C340.075 80.4974 340.594 80.4152 341.111 80.3215C341.343 80.2797 341.569 80.4197 341.631 80.6459C341.732 81.0116 341.833 81.3773 341.934 81.743C342.003 81.9947 341.843 82.2523 341.585 82.299C341.049 82.3963 340.508 82.4816 339.964 82.5529ZM343.289 81.9575C343.056 82.0095 342.824 81.8686 342.761 81.6393C342.661 81.2736 342.56 80.9079 342.459 80.5418C342.39 80.2932 342.546 80.0388 342.798 79.9818C343.309 79.8669 343.818 79.7431 344.324 79.6098C344.565 79.5465 344.813 79.6865 344.879 79.9257C344.98 80.2923 345.081 80.6584 345.182 81.0246C345.247 81.2633 345.107 81.5106 344.866 81.5738C344.343 81.7116 343.818 81.8395 343.289 81.9575ZM346.535 81.1004C346.294 81.1745 346.04 81.0336 345.973 80.7913C345.872 80.4247 345.771 80.0585 345.67 79.6924C345.606 79.4568 345.742 79.2131 345.976 79.1418C346.479 78.9888 346.98 78.8286 347.478 78.6608C347.726 78.5777 347.993 78.7177 348.062 78.9681C348.163 79.3334 348.263 79.6986 348.364 80.0639C348.426 80.2918 348.301 80.5297 348.077 80.6055C347.564 80.7778 347.051 80.9429 346.535 81.1004ZM349.709 80.0199C349.463 80.1123 349.191 79.9723 349.121 79.7193C349.02 79.3536 348.92 78.9879 348.819 78.6222C348.757 78.3978 348.878 78.1631 349.097 78.0815C349.592 77.8961 350.084 77.7045 350.575 77.5066C350.826 77.4052 351.111 77.5439 351.183 77.8041C351.283 78.1681 351.383 78.532 351.483 78.8959C351.543 79.114 351.431 79.3428 351.221 79.4285C350.72 79.6318 350.217 79.8297 349.709 80.0199ZM353.515 78.449C353.288 78.5504 353.06 78.6513 352.832 78.7509C352.582 78.86 352.294 78.7218 352.221 78.4593C352.121 78.0958 352.021 77.7319 351.921 77.3684C351.861 77.1522 351.971 76.9256 352.177 76.8358C352.444 76.7205 352.709 76.6025 352.974 76.4845C353.299 76.3395 353.622 76.1915 353.944 76.0416C354.197 75.924 354.496 76.0613 354.57 76.3297C354.67 76.6918 354.769 77.0539 354.869 77.4156C354.927 77.6265 354.824 77.8481 354.626 77.9406C354.256 78.112 353.885 78.282 353.515 78.449ZM356.042 77.2634C355.79 77.3864 355.487 77.2495 355.413 76.9794C355.313 76.6182 355.214 76.257 355.114 75.8957C355.057 75.6866 355.158 75.4663 355.354 75.3716C355.838 75.137 356.32 74.8969 356.803 74.6532C357.057 74.5249 357.366 74.6604 357.442 74.935C357.541 75.2949 357.64 75.6552 357.74 76.0156C357.796 76.2206 357.7 76.4369 357.51 76.5334C357.021 76.7806 356.531 77.0243 356.042 77.2634ZM359.08 75.7243C358.826 75.8572 358.513 75.7212 358.438 75.4457C358.339 75.0863 358.24 74.7268 358.141 74.3679C358.084 74.1632 358.179 73.9479 358.368 73.8496C358.849 73.5997 359.328 73.3452 359.806 73.0886C360.061 72.9513 360.378 73.0863 360.455 73.365C360.554 73.7235 360.653 74.0825 360.752 74.4415C360.807 74.642 360.717 74.8543 360.533 74.9534C360.05 75.2141 359.565 75.4708 359.08 75.7243ZM362.092 74.1099C361.837 74.2494 361.518 74.1148 361.441 73.8352C361.343 73.4772 361.244 73.1195 361.145 72.7615C361.09 72.5609 361.18 72.3486 361.364 72.249C361.843 71.987 362.322 71.724 362.8 71.4606C363.055 71.3197 363.376 71.4543 363.453 71.7343C363.551 72.0924 363.65 72.4509 363.749 72.809C363.804 73.0087 363.715 73.2196 363.533 73.3197C363.053 73.5849 362.572 73.8478 362.092 74.1099ZM365.086 72.4572C364.831 72.5995 364.509 72.4653 364.432 72.1844C364.333 71.8268 364.235 71.4696 364.137 71.1124C364.082 70.9132 364.17 70.7023 364.352 70.6013C364.831 70.3352 365.31 70.0687 365.789 69.8022C366.044 69.6604 366.365 69.7945 366.442 70.075C366.541 70.4331 366.639 70.7907 366.738 71.1483C366.793 71.348 366.704 71.5589 366.523 71.6594C366.043 71.925 365.564 72.1911 365.086 72.4572ZM368.074 70.8006C367.819 70.941 367.499 70.8068 367.422 70.5264C367.323 70.1688 367.225 69.8107 367.126 69.4526C367.071 69.2529 367.16 69.0416 367.342 68.9411C367.822 68.6768 368.302 68.4125 368.783 68.1495C369.038 68.0104 369.356 68.145 369.433 68.4241C369.532 68.7827 369.63 69.1407 369.729 69.4993C369.785 69.6998 369.694 69.9121 369.511 70.0122C369.032 70.2738 368.553 70.5372 368.074 70.8006ZM371.064 69.1735C370.81 69.3099 370.493 69.1748 370.416 68.8966C370.318 68.5381 370.219 68.1791 370.12 67.8206C370.064 67.6187 370.156 67.406 370.341 67.3068C370.825 67.0479 371.309 66.7913 371.795 66.5382C372.048 66.4058 372.36 66.5418 372.436 66.8168C372.535 67.1767 372.634 67.5366 372.733 67.8965C372.789 68.1006 372.694 68.316 372.506 68.4143C372.025 68.6642 371.544 68.9177 371.064 69.1735ZM374.071 67.6129C373.816 67.7407 373.508 67.6043 373.432 67.3306C373.333 66.9703 373.234 66.61 373.134 66.2497C373.078 66.0441 373.174 65.827 373.365 65.7309C373.853 65.485 374.341 65.2409 374.832 65.0027C375.084 64.8797 375.385 65.0166 375.459 65.2863C375.559 65.6488 375.659 66.0109 375.759 66.3735C375.816 66.5817 375.717 66.8011 375.522 66.8963C375.037 67.1323 374.554 67.371 374.071 67.6129ZM377.767 65.8516C377.545 65.9504 377.325 66.0509 377.104 66.1527C376.85 66.2694 376.552 66.1321 376.478 65.8638C376.378 65.5016 376.278 65.1395 376.178 64.7774C376.12 64.567 376.223 64.3453 376.422 64.2533C376.689 64.1295 376.957 64.0074 377.227 63.8872C377.557 63.74 377.886 63.5941 378.217 63.4515C378.467 63.3429 378.754 63.4815 378.826 63.7436C378.927 64.107 379.027 64.4709 379.127 64.8344C379.187 65.0511 379.076 65.2782 378.869 65.367C378.501 65.5254 378.133 65.687 377.767 65.8516ZM380.298 64.7743C380.046 64.8757 379.762 64.737 379.69 64.4768C379.59 64.1129 379.49 63.7494 379.389 63.3855C379.329 63.167 379.442 62.9381 379.653 62.8529C380.155 62.6505 380.66 62.4535 381.166 62.2646C381.412 62.1722 381.684 62.3122 381.754 62.5652C381.854 62.9305 381.955 63.2957 382.056 63.661C382.117 63.8863 381.996 64.1214 381.776 64.2026C381.282 64.3861 380.789 64.5768 380.298 64.7743ZM383.402 63.6287C383.155 63.7122 382.888 63.5722 382.819 63.3218C382.718 62.9561 382.617 62.5904 382.516 62.2247C382.453 61.9972 382.579 61.7598 382.803 61.684C383.316 61.5107 383.832 61.3465 384.349 61.1917C384.59 61.1199 384.841 61.2608 384.908 61.5018C385.009 61.8684 385.11 62.2345 385.211 62.6007C385.276 62.8376 385.138 63.0826 384.901 63.1531C384.399 63.3025 383.899 63.4618 383.402 63.6287ZM386.557 62.6886C386.317 62.7515 386.069 62.611 386.004 62.3723C385.903 62.0061 385.802 61.64 385.701 61.2734C385.635 61.0342 385.776 60.787 386.017 60.7241C386.541 60.5877 387.067 60.4612 387.595 60.345C387.828 60.2938 388.059 60.4343 388.122 60.6631C388.222 61.0288 388.323 61.3941 388.424 61.7598C388.493 62.0093 388.336 62.2646 388.082 62.3207C387.57 62.4338 387.062 62.5567 386.557 62.6886ZM389.771 61.9841C389.54 62.025 389.315 61.8854 389.252 61.6597C389.152 61.2945 389.051 60.9292 388.95 60.5635C388.881 60.3109 389.042 60.0529 389.301 60.0075C389.837 59.9138 390.377 59.8321 390.919 59.7616C391.141 59.7325 391.348 59.872 391.408 60.0865C391.508 60.4495 391.608 60.8125 391.708 61.176C391.781 61.4399 391.601 61.7068 391.328 61.7432C390.807 61.8132 390.287 61.8931 389.771 61.9841ZM393.057 61.5552C392.838 61.574 392.636 61.4363 392.578 61.2254C392.479 60.8637 392.379 60.5016 392.279 60.1395C392.205 59.8711 392.392 59.6006 392.67 59.5781C393.222 59.5328 393.776 59.5005 394.336 59.4821C394.542 59.4754 394.725 59.6118 394.78 59.8101C394.878 60.1673 394.976 60.5249 395.075 60.8821C395.153 61.1639 394.944 61.443 394.651 61.4547C394.116 61.4757 393.585 61.5099 393.057 61.5552ZM396.422 61.4273C396.219 61.425 396.041 61.2904 395.987 61.0957C395.889 60.7398 395.791 60.384 395.693 60.0286C395.614 59.7428 395.83 59.461 396.127 59.4664C396.694 59.4767 397.264 59.5014 397.838 59.5395C398.028 59.5521 398.188 59.684 398.239 59.8671C398.334 60.2149 398.43 60.5626 398.526 60.9104C398.609 61.2101 398.368 61.5009 398.056 61.4825C397.508 61.4506 396.963 61.4322 396.422 61.4273ZM399.88 61.6368C399.695 61.6162 399.541 61.4865 399.492 61.3079C399.397 60.9624 399.302 60.6174 399.206 60.2718C399.122 59.9676 399.371 59.6746 399.686 59.7132C400.269 59.7841 400.857 59.8711 401.449 59.9739C401.62 60.0035 401.757 60.1291 401.803 60.2956C401.895 60.6304 401.988 60.9651 402.079 61.2999C402.167 61.6184 401.891 61.9195 401.563 61.867C400.998 61.7759 400.437 61.6992 399.88 61.6368Z" fill="black"/>
<mask id="mask1_514_1490" style="mask-type:luminance" maskUnits="userSpaceOnUse" x="318" y="29" width="91" height="73">
<path d="M408.722 29.168H318.829V101.607H408.722V29.168Z" fill="white"/>
<path d="M404.584 62.5917C404.564 62.5235 404.51 62.4701 404.441 62.4531C404.105 62.3705 403.771 62.2938 403.439 62.222C403.275 62.1861 403.138 62.0627 403.128 61.8949C403.106 61.5265 403.219 61.1518 403.26 60.7807C403.29 60.5043 403.547 60.2494 403.815 60.3302C404.087 60.4127 404.338 60.1682 404.263 59.894C403.471 57.0119 402.679 54.1298 401.884 51.2445C401.841 51.0879 401.717 50.9668 401.557 50.9363C401.174 50.8636 400.666 50.7985 400.283 50.7348C400.117 50.707 399.986 50.5831 399.941 50.4216C399.85 50.0913 399.759 49.7611 399.668 49.4313C399.579 49.1068 399.867 48.7977 400.199 48.8591C400.544 48.9224 400.944 48.9956 401.293 49.062C401.633 49.1266 401.716 48.9615 401.413 48.795C401.334 48.7515 401.258 48.7088 401.194 48.668C401.057 48.5818 400.905 48.4719 400.747 48.4338C390.932 46.0679 382.071 48.2134 373.916 51.866C365.69 55.5536 357.89 60.7762 349.664 64.4633C341.551 68.0997 333.031 70.2388 323.286 67.9328C323.103 67.8897 322.937 68.0571 322.986 68.2375C323.01 68.3218 323.077 68.3869 323.162 68.408C323.609 68.5175 324.055 68.6166 324.497 68.7068C324.665 68.7409 324.799 68.8652 324.844 69.0295C324.936 69.362 325.028 69.6945 325.119 70.027C325.208 70.3482 324.924 70.6655 324.591 70.6341C324.315 70.6076 324.017 70.5834 323.739 70.5542C323.397 70.5183 323.094 70.8454 323.181 71.1761C323.918 73.9864 324.431 76.6456 325.198 79.4779C325.24 79.634 325.365 79.7556 325.524 79.7897C326.106 79.9149 327.068 80.0814 327.655 80.1891C327.823 80.22 327.957 80.3448 328.002 80.509C328.094 80.8415 328.185 81.174 328.277 81.5065C328.365 81.8278 328.084 82.128 327.757 82.0602C327.236 81.9525 326.577 81.813 326.06 81.6999C325.753 81.6326 325.074 81.3719 325.247 81.6335C325.299 81.7125 325.543 81.9871 325.635 82.0095C335.505 84.4218 345.443 82.5444 353.629 78.8779C361.855 75.1904 369.655 69.9682 377.881 66.2806C386.018 62.6334 394.565 60.4926 404.346 62.8318C404.491 62.8668 404.624 62.7357 404.584 62.5917ZM398.294 48.4957C398.465 48.5248 398.602 48.6509 398.648 48.817C398.741 49.1517 398.833 49.4865 398.925 49.8212C399.013 50.1402 398.736 50.4413 398.409 50.3884C397.844 50.2973 397.282 50.2206 396.725 50.1582C396.54 50.1375 396.386 50.0079 396.337 49.8293C396.242 49.4842 396.147 49.1387 396.052 48.7932C395.968 48.489 396.217 48.1964 396.531 48.2345C397.114 48.3059 397.702 48.3929 398.294 48.4957ZM394.684 48.0604C394.874 48.073 395.033 48.2049 395.084 48.3875C395.18 48.7353 395.276 49.0835 395.372 49.4317C395.454 49.7315 395.213 50.0222 394.901 50.0043C394.354 49.972 393.809 49.954 393.267 49.9486C393.064 49.9468 392.886 49.8122 392.833 49.617C392.734 49.2612 392.637 48.9058 392.538 48.55C392.46 48.2646 392.675 47.9828 392.973 47.9877C393.54 47.9972 394.111 48.0209 394.684 48.0604ZM391.177 48.003C391.384 47.9963 391.567 48.1327 391.622 48.331C391.721 48.6886 391.819 49.0463 391.917 49.4034C391.995 49.6848 391.786 49.9639 391.494 49.9756C390.959 49.9971 390.427 50.0307 389.899 50.0761C389.68 50.0949 389.479 49.9567 389.421 49.7463C389.321 49.3841 389.221 49.022 389.122 48.6599C389.048 48.3916 389.234 48.1215 389.513 48.0986C390.064 48.0537 390.619 48.0218 391.177 48.003ZM387.765 48.283C387.986 48.2543 388.194 48.3934 388.253 48.6079C388.353 48.9709 388.453 49.3339 388.553 49.6965C388.626 49.9612 388.446 50.2282 388.173 50.2645C387.651 50.3341 387.132 50.4144 386.617 50.5059C386.385 50.5468 386.16 50.4068 386.098 50.1815C385.997 49.8158 385.897 49.4506 385.796 49.0853C385.726 48.8327 385.888 48.5742 386.147 48.5289C386.683 48.4351 387.223 48.3539 387.765 48.283ZM384.441 48.8659C384.673 48.8147 384.904 48.9556 384.967 49.184C385.067 49.5497 385.168 49.9154 385.269 50.2811C385.338 50.5311 385.181 50.7864 384.927 50.8425C384.416 50.9551 383.908 51.0785 383.402 51.2104C383.162 51.2732 382.915 51.1328 382.849 50.8941C382.748 50.5279 382.647 50.1613 382.546 49.7952C382.48 49.556 382.622 49.3083 382.863 49.2455C383.386 49.1091 383.912 48.9821 384.441 48.8659ZM381.195 49.7117C381.435 49.6395 381.688 49.7804 381.754 50.0218C381.855 50.3879 381.956 50.7545 382.057 51.1207C382.122 51.3572 381.985 51.6013 381.749 51.6722C381.246 51.8238 380.745 51.9836 380.246 52.15C380 52.2322 379.734 52.0922 379.665 51.8427C379.565 51.4765 379.464 51.1104 379.363 50.7447C379.3 50.5163 379.426 50.2784 379.651 50.2031C380.162 50.0316 380.677 49.8674 381.195 49.7117ZM378.011 50.7859C378.258 50.694 378.529 50.834 378.599 51.0866C378.699 51.4518 378.8 51.8175 378.901 52.1828C378.963 52.4081 378.841 52.6427 378.622 52.7244C378.127 52.9079 377.634 53.0982 377.143 53.2961C376.892 53.397 376.607 53.2584 376.535 52.9981C376.435 52.6342 376.335 52.2703 376.234 51.9059C376.174 51.6879 376.286 51.4595 376.497 51.3742C377 51.1705 377.505 50.9744 378.011 50.7859ZM374.072 52.4085C374.402 52.2618 374.732 52.1159 375.062 51.9728C375.312 51.8647 375.6 52.0033 375.672 52.2649C375.772 52.6288 375.872 52.9923 375.972 53.3562C376.032 53.5729 375.922 53.8 375.715 53.8888C375.346 54.0468 374.978 54.2088 374.613 54.373C374.391 54.4722 374.17 54.5727 373.949 54.6741C373.696 54.7907 373.397 54.6539 373.323 54.3851C373.223 54.0225 373.123 53.66 373.023 53.2974C372.966 53.0874 373.067 52.8662 373.265 52.7747C373.533 52.6508 373.802 52.5288 374.072 52.4085ZM371.675 53.5285C371.928 53.4051 372.23 53.5424 372.304 53.8125C372.404 54.1738 372.504 54.535 372.603 54.8962C372.661 55.1053 372.559 55.3256 372.363 55.4203C371.88 55.6536 371.397 55.8915 370.917 56.1342C370.662 56.263 370.351 56.127 370.276 55.8524C370.177 55.4925 370.077 55.1331 369.978 54.7732C369.922 54.5682 370.018 54.3515 370.209 54.2554C370.697 54.0086 371.186 53.7663 371.675 53.5285ZM368.64 55.06C368.894 54.9276 369.205 55.0631 369.281 55.3386C369.38 55.6981 369.479 56.0579 369.578 56.4178C369.635 56.6224 369.54 56.8378 369.351 56.9356C368.87 57.186 368.39 57.4391 367.91 57.6953C367.655 57.8313 367.338 57.6966 367.262 57.4184C367.163 57.0595 367.064 56.7009 366.965 56.342C366.91 56.1405 367.001 55.9274 367.186 55.8286C367.671 55.5693 368.155 55.3131 368.64 55.06ZM365.629 56.6709C365.883 56.5318 366.202 56.6664 366.279 56.9455C366.377 57.304 366.476 57.6625 366.575 58.0206C366.63 58.2216 366.539 58.4334 366.356 58.5335C365.877 58.7947 365.399 59.0567 364.92 59.3206C364.665 59.4615 364.344 59.3273 364.267 59.0464C364.168 58.6888 364.07 58.3311 363.971 57.9731C363.916 57.7738 364.005 57.5629 364.186 57.4624C364.666 57.1977 365.147 56.9338 365.629 56.6709ZM362.63 58.3244C362.886 58.1822 363.207 58.3163 363.285 58.5972C363.383 58.9544 363.482 59.312 363.58 59.6692C363.635 59.8684 363.546 60.0793 363.365 60.1798C362.885 60.4464 362.407 60.7129 361.928 60.9795C361.672 61.1213 361.352 60.9871 361.274 60.7062C361.176 60.3486 361.077 59.9909 360.979 59.6329C360.924 59.4336 361.013 59.2227 361.194 59.1222C361.673 58.8566 362.152 58.5905 362.63 58.3244ZM359.641 59.9847C359.896 59.8429 360.218 59.977 360.296 60.2579C360.394 60.6156 360.493 60.9727 360.591 61.3299C360.646 61.5291 360.557 61.74 360.375 61.8406C359.895 62.1062 359.414 62.3696 358.933 62.6321C358.679 62.7712 358.361 62.6366 358.284 62.3575C358.185 61.9994 358.086 61.6413 357.988 61.2832C357.932 61.0822 358.023 60.8695 358.207 60.7699C358.685 60.5106 359.164 60.2485 359.641 59.9847ZM356.65 61.6126C356.906 61.4762 357.223 61.6108 357.3 61.8895C357.399 62.248 357.497 62.6065 357.596 62.965C357.652 63.1665 357.561 63.3792 357.377 63.4779C356.894 63.7368 356.41 63.9931 355.925 64.247C355.671 64.3807 355.358 64.2452 355.282 63.9688C355.183 63.6094 355.084 63.25 354.985 62.8906C354.929 62.6868 355.023 62.4723 355.21 62.3741C355.69 62.1223 356.171 61.8688 356.65 61.6126ZM353.648 63.1746C353.903 63.0463 354.212 63.1822 354.288 63.4564C354.387 63.8167 354.486 64.1775 354.585 64.5378C354.642 64.7424 354.547 64.9587 354.356 65.0552C353.869 65.3024 353.379 65.5456 352.888 65.7848C352.635 65.9082 352.333 65.7713 352.258 65.5007C352.159 65.1395 352.059 64.7779 351.96 64.4166C351.902 64.2075 352.002 63.9877 352.198 63.893C352.681 63.6579 353.165 63.4182 353.648 63.1746ZM349.816 65.0054C350.141 64.8604 350.464 64.7119 350.787 64.5625C351.04 64.4449 351.338 64.5818 351.412 64.8501C351.512 65.2127 351.612 65.5757 351.712 65.9382C351.77 66.1482 351.668 66.369 351.47 66.4614C351.099 66.6338 350.728 66.8025 350.357 66.9694C350.13 67.0708 349.902 67.1718 349.674 67.2714C349.424 67.3809 349.136 67.2422 349.063 66.9797C348.963 66.6163 348.863 66.2523 348.763 65.8889C348.704 65.6726 348.813 65.446 349.019 65.3567C349.286 65.2405 349.551 65.1238 349.816 65.0054ZM347.425 66.0257C347.676 65.9243 347.961 66.063 348.032 66.3232C348.133 66.6876 348.233 67.0515 348.333 67.4154C348.393 67.6335 348.281 67.8624 348.071 67.9476C347.568 68.1522 347.064 68.3501 346.559 68.5395C346.312 68.6319 346.04 68.4919 345.971 68.2388C345.87 67.8731 345.769 67.5079 345.669 67.1422C345.607 66.9169 345.728 66.6827 345.947 66.6006C346.44 66.4161 346.933 66.2241 347.425 66.0257ZM344.321 67.1803C344.568 67.0964 344.836 67.2359 344.905 67.4868C345.006 67.852 345.107 68.2173 345.207 68.5825C345.27 68.81 345.145 69.0474 344.921 69.1237C344.409 69.2973 343.894 69.4638 343.376 69.6204C343.136 69.6936 342.883 69.5527 342.817 69.3108C342.716 68.9447 342.615 68.5785 342.514 68.2123C342.449 67.9759 342.586 67.7313 342.822 67.6604C343.324 67.5092 343.823 67.349 344.321 67.1803ZM341.17 68.1311C341.41 68.0679 341.658 68.2083 341.724 68.4475C341.825 68.8136 341.926 69.1802 342.027 69.5464C342.093 69.7851 341.952 70.0319 341.712 70.0952C341.188 70.2334 340.663 70.3608 340.135 70.4788C339.902 70.5309 339.67 70.3904 339.607 70.1611C339.506 69.795 339.405 69.4293 339.304 69.0636C339.236 68.815 339.391 68.5601 339.644 68.5036C340.155 68.3887 340.663 68.2648 341.17 68.1311ZM337.957 68.845C338.188 68.8038 338.413 68.9433 338.476 69.169C338.576 69.5343 338.677 69.9 338.778 70.2652C338.847 70.5179 338.686 70.7763 338.427 70.8221C337.891 70.9172 337.352 71.0025 336.81 71.0761C336.589 71.1061 336.38 70.9666 336.321 70.7516C336.221 70.3886 336.121 70.0256 336.021 69.6622C335.948 69.3983 336.127 69.1318 336.399 69.0945C336.922 69.0218 337.441 68.9379 337.957 68.845ZM334.676 69.2902C334.895 69.2704 335.098 69.4086 335.156 69.62C335.256 69.9825 335.356 70.3447 335.456 70.7072C335.529 70.9747 335.344 71.2443 335.067 71.2686C334.516 71.3161 333.962 71.3507 333.404 71.3718C333.197 71.3794 333.013 71.243 332.958 71.0438C332.859 70.6848 332.76 70.3263 332.662 69.9677C332.584 69.6877 332.79 69.41 333.081 69.3965C333.615 69.3723 334.147 69.3373 334.676 69.2902ZM326.296 70.9096C326.125 70.8804 325.987 70.7543 325.941 70.5874C325.848 70.2522 325.756 69.917 325.663 69.5814C325.576 69.2637 325.851 68.9626 326.178 69.0138C326.742 69.1013 327.303 69.1744 327.86 69.2341C328.045 69.2538 328.2 69.3839 328.25 69.563C328.345 69.9098 328.441 70.2563 328.536 70.6027C328.619 70.9056 328.373 71.1981 328.06 71.1618C327.475 71.094 326.888 71.0097 326.296 70.9096ZM329.901 71.3282C329.711 71.3166 329.549 71.1842 329.499 71.0007C329.403 70.6525 329.307 70.3043 329.211 69.9561C329.129 69.6572 329.368 69.3669 329.679 69.3839C330.227 69.4136 330.77 69.4293 331.311 69.432C331.514 69.4333 331.693 69.5679 331.747 69.7636C331.845 70.119 331.943 70.4743 332.041 70.8297C332.12 71.1151 331.904 71.3969 331.607 71.3924C331.043 71.3843 330.475 71.3632 329.901 71.3282ZM329.451 82.3878C329.279 82.3591 329.141 82.233 329.095 82.0661C329.003 81.7304 328.91 81.3952 328.818 81.06C328.73 80.7419 329.005 80.4413 329.332 80.492C329.896 80.5799 330.457 80.6526 331.014 80.7127C331.2 80.7325 331.355 80.8626 331.404 81.0416C331.499 81.3876 331.594 81.7336 331.69 82.0791C331.773 82.3829 331.526 82.6754 331.212 82.6386C330.629 82.5709 330.042 82.4874 329.451 82.3878ZM333.055 82.8042C332.865 82.7921 332.705 82.6602 332.654 82.4771C332.558 82.1284 332.462 81.7802 332.366 81.4316C332.284 81.1323 332.524 80.842 332.834 80.859C333.382 80.8891 333.926 80.9048 334.466 80.9075C334.67 80.9084 334.849 81.0434 334.903 81.2391C335.001 81.5949 335.099 81.9512 335.197 82.307C335.275 82.592 335.061 82.8733 334.765 82.8697C334.199 82.8625 333.629 82.8415 333.055 82.8042ZM336.56 82.8491C336.352 82.8572 336.167 82.7207 336.112 82.5206C336.013 82.1634 335.915 81.8063 335.817 81.4491C335.739 81.1682 335.947 80.8895 336.239 80.8765C336.773 80.8532 337.303 80.8173 337.83 80.7693C338.049 80.7495 338.252 80.8877 338.311 81.0991C338.41 81.4607 338.51 81.8229 338.61 82.185C338.683 82.4529 338.498 82.7225 338.22 82.7463C337.67 82.793 337.117 82.8271 336.56 82.8491ZM339.964 82.5529C339.743 82.5821 339.535 82.443 339.476 82.229C339.376 81.8646 339.276 81.5007 339.176 81.1368C339.103 80.8734 339.282 80.6068 339.553 80.5696C340.075 80.4974 340.594 80.4152 341.111 80.3215C341.342 80.2797 341.569 80.4197 341.631 80.6459C341.732 81.0116 341.833 81.3773 341.933 81.743C342.003 81.9947 341.843 82.2523 341.585 82.299C341.049 82.3963 340.508 82.4816 339.964 82.5529ZM343.289 81.9575C343.056 82.0095 342.824 81.8686 342.761 81.6393C342.66 81.2736 342.559 80.9079 342.459 80.5418C342.39 80.2932 342.546 80.0388 342.798 79.9818C343.309 79.8669 343.817 79.7431 344.324 79.6098C344.565 79.5465 344.813 79.6865 344.879 79.9257C344.98 80.2923 345.08 80.6584 345.181 81.0246C345.247 81.2633 345.106 81.5106 344.866 81.5738C344.343 81.7116 343.817 81.8395 343.289 81.9575ZM346.535 81.1004C346.294 81.1745 346.04 81.0336 345.973 80.7913C345.872 80.4247 345.771 80.0585 345.67 79.6924C345.605 79.4568 345.741 79.2131 345.976 79.1418C346.478 78.9888 346.98 78.8286 347.478 78.6608C347.725 78.5777 347.993 78.7177 348.062 78.9681C348.162 79.3334 348.263 79.6986 348.364 80.0639C348.426 80.2918 348.301 80.5297 348.076 80.6055C347.564 80.7778 347.05 80.9429 346.535 81.1004ZM349.709 80.0199C349.462 80.1123 349.19 79.9723 349.121 79.7193C349.02 79.3536 348.919 78.9879 348.818 78.6222C348.757 78.3978 348.878 78.1631 349.097 78.0815C349.591 77.8961 350.084 77.7045 350.575 77.5066C350.826 77.4052 351.111 77.5439 351.182 77.8041C351.283 78.1681 351.383 78.532 351.483 78.8959C351.543 79.114 351.431 79.3428 351.221 79.4285C350.72 79.6318 350.216 79.8297 349.709 80.0199ZM353.515 78.449C353.288 78.5504 353.06 78.6513 352.832 78.7509C352.582 78.86 352.293 78.7218 352.221 78.4593C352.121 78.0958 352.021 77.7319 351.921 77.3684C351.861 77.1522 351.971 76.9256 352.177 76.8358C352.443 76.7205 352.709 76.6025 352.974 76.4845C353.299 76.3395 353.622 76.1915 353.944 76.0416C354.197 75.924 354.496 76.0613 354.569 76.3297C354.669 76.6918 354.769 77.0539 354.869 77.4156C354.927 77.6265 354.824 77.8481 354.625 77.9406C354.256 78.112 353.885 78.282 353.515 78.449ZM356.042 77.2634C355.789 77.3864 355.487 77.2495 355.413 76.9794C355.313 76.6182 355.213 76.257 355.114 75.8957C355.056 75.6866 355.158 75.4663 355.354 75.3716C355.838 75.137 356.32 74.8969 356.802 74.6532C357.057 74.5249 357.366 74.6604 357.442 74.935C357.541 75.2949 357.64 75.6552 357.74 76.0156C357.796 76.2206 357.7 76.4369 357.51 76.5334C357.021 76.7806 356.531 77.0243 356.042 77.2634ZM359.079 75.7243C358.825 75.8572 358.513 75.7212 358.438 75.4457C358.339 75.0863 358.239 74.7268 358.14 74.3679C358.084 74.1632 358.179 73.9479 358.367 73.8496C358.848 73.5997 359.327 73.3452 359.806 73.0886C360.061 72.9513 360.378 73.0863 360.455 73.365C360.554 73.7235 360.653 74.0825 360.752 74.4415C360.807 74.642 360.716 74.8543 360.533 74.9534C360.049 75.2141 359.564 75.4708 359.079 75.7243ZM362.092 74.1099C361.837 74.2494 361.518 74.1148 361.441 73.8352C361.342 73.4772 361.244 73.1195 361.145 72.7615C361.09 72.5609 361.18 72.3486 361.364 72.249C361.843 71.987 362.321 71.724 362.8 71.4606C363.055 71.3197 363.375 71.4543 363.452 71.7343C363.551 72.0924 363.65 72.4509 363.749 72.809C363.804 73.0087 363.714 73.2196 363.533 73.3197C363.053 73.5849 362.572 73.8478 362.092 74.1099ZM365.086 72.4572C364.831 72.5995 364.509 72.4653 364.432 72.1844C364.333 71.8268 364.235 71.4696 364.136 71.1124C364.081 70.9132 364.17 70.7023 364.352 70.6013C364.831 70.3352 365.31 70.0687 365.789 69.8022C366.044 69.6604 366.365 69.7945 366.442 70.075C366.54 70.4331 366.639 70.7907 366.738 71.1483C366.793 71.348 366.704 71.5589 366.522 71.6594C366.043 71.925 365.564 72.1911 365.086 72.4572ZM368.074 70.8006C367.819 70.941 367.499 70.8068 367.422 70.5264C367.323 70.1688 367.224 69.8107 367.126 69.4526C367.071 69.2529 367.16 69.0416 367.342 68.9411C367.822 68.6768 368.302 68.4125 368.783 68.1495C369.038 68.0104 369.356 68.145 369.433 68.4241C369.532 68.7827 369.63 69.1407 369.729 69.4993C369.784 69.6998 369.694 69.9121 369.51 70.0122C369.031 70.2738 368.553 70.5372 368.074 70.8006ZM371.064 69.1735C370.809 69.3099 370.493 69.1748 370.416 68.8966C370.317 68.5381 370.218 68.1791 370.12 67.8206C370.064 67.6187 370.156 67.406 370.34 67.3068C370.825 67.0479 371.309 66.7913 371.795 66.5382C372.048 66.4058 372.359 66.5418 372.436 66.8168C372.535 67.1767 372.634 67.5366 372.733 67.8965C372.789 68.1006 372.694 68.316 372.506 68.4143C372.024 68.6642 371.544 68.9177 371.064 69.1735ZM374.07 67.6129C373.816 67.7407 373.507 67.6043 373.432 67.3306C373.333 66.9703 373.234 66.61 373.134 66.2497C373.077 66.0441 373.174 65.827 373.365 65.7309C373.853 65.485 374.341 65.2409 374.831 65.0027C375.084 64.8797 375.385 65.0166 375.459 65.2863C375.559 65.6488 375.659 66.0109 375.759 66.3735C375.816 66.5817 375.716 66.8011 375.521 66.8963C375.037 67.1323 374.554 67.371 374.07 67.6129ZM377.767 65.8516C377.545 65.9504 377.325 66.0509 377.103 66.1527C376.85 66.2694 376.551 66.1321 376.477 65.8638C376.377 65.5016 376.278 65.1395 376.178 64.7774C376.12 64.567 376.223 64.3453 376.422 64.2533C376.689 64.1295 376.957 64.0074 377.226 63.8872C377.556 63.74 377.886 63.5941 378.216 63.4515C378.467 63.3429 378.754 63.4815 378.826 63.7436C378.926 64.107 379.026 64.4709 379.127 64.8344C379.186 65.0511 379.076 65.2782 378.869 65.367C378.501 65.5254 378.132 65.687 377.767 65.8516ZM380.297 64.7743C380.046 64.8757 379.761 64.737 379.689 64.4768C379.589 64.1129 379.489 63.7494 379.389 63.3855C379.329 63.167 379.442 62.9381 379.652 62.8529C380.155 62.6505 380.66 62.4535 381.166 62.2646C381.412 62.1722 381.684 62.3122 381.753 62.5652C381.854 62.9305 381.955 63.2957 382.056 63.661C382.117 63.8863 381.996 64.1214 381.776 64.2026C381.282 64.3861 380.789 64.5768 380.297 64.7743ZM383.402 63.6287C383.154 63.7122 382.887 63.5722 382.818 63.3218C382.718 62.9561 382.617 62.5904 382.516 62.2247C382.453 61.9972 382.578 61.7598 382.803 61.684C383.316 61.5107 383.831 61.3465 384.349 61.1917C384.59 61.1199 384.841 61.2608 384.908 61.5018C385.009 61.8684 385.109 62.2345 385.21 62.6007C385.276 62.8376 385.137 63.0826 384.901 63.1531C384.399 63.3025 383.899 63.4618 383.402 63.6287ZM386.556 62.6886C386.316 62.7515 386.069 62.611 386.003 62.3723C385.902 62.0061 385.802 61.64 385.701 61.2734C385.634 61.0342 385.776 60.787 386.017 60.7241C386.541 60.5877 387.067 60.4612 387.595 60.345C387.827 60.2938 388.058 60.4343 388.121 60.6631C388.222 61.0288 388.323 61.3941 388.424 61.7598C388.492 62.0093 388.335 62.2646 388.082 62.3207C387.57 62.4338 387.062 62.5567 386.556 62.6886ZM389.771 61.9841C389.54 62.025 389.314 61.8854 389.252 61.6597C389.151 61.2945 389.051 60.9292 388.95 60.5635C388.881 60.3109 389.042 60.0529 389.301 60.0075C389.837 59.9138 390.377 59.8321 390.919 59.7616C391.141 59.7325 391.348 59.872 391.408 60.0865C391.508 60.4495 391.608 60.8125 391.708 61.176C391.78 61.4399 391.6 61.7068 391.328 61.7432C390.806 61.8132 390.287 61.8931 389.771 61.9841ZM393.056 61.5552C392.838 61.574 392.636 61.4363 392.578 61.2254C392.479 60.8637 392.379 60.5016 392.279 60.1395C392.205 59.8711 392.392 59.6006 392.67 59.5781C393.222 59.5328 393.776 59.5005 394.335 59.4821C394.542 59.4754 394.725 59.6118 394.779 59.8101C394.878 60.1673 394.976 60.5249 395.075 60.8821C395.152 61.1639 394.943 61.443 394.651 61.4547C394.116 61.4757 393.585 61.5099 393.056 61.5552ZM396.421 61.4273C396.218 61.425 396.04 61.2904 395.987 61.0957C395.889 60.7398 395.791 60.384 395.693 60.0286C395.614 59.7428 395.83 59.461 396.127 59.4664C396.693 59.4767 397.264 59.5014 397.837 59.5395C398.027 59.5521 398.188 59.684 398.239 59.8671C398.334 60.2149 398.43 60.5626 398.526 60.9104C398.608 61.2101 398.367 61.5009 398.056 61.4825C397.508 61.4506 396.963 61.4322 396.421 61.4273ZM399.88 61.6368C399.695 61.6162 399.541 61.4865 399.491 61.3079C399.396 60.9624 399.301 60.6174 399.206 60.2718C399.122 59.9676 399.371 59.6746 399.686 59.7132C400.269 59.7841 400.856 59.8711 401.449 59.9739C401.619 60.0035 401.757 60.1291 401.803 60.2956C401.895 60.6304 401.987 60.9651 402.079 61.2999C402.167 61.6184 401.89 61.9195 401.563 61.867C400.998 61.7759 400.437 61.6992 399.88 61.6368Z" fill="black"/>
</mask>
<g mask="url(#mask1_514_1490)">
<path d="M404.584 62.5917C404.564 62.5235 404.51 62.4701 404.441 62.4531C404.105 62.3705 403.771 62.2938 403.439 62.222C403.275 62.1861 403.138 62.0627 403.128 61.8949C403.106 61.5265 403.219 61.1518 403.26 60.7807C403.29 60.5043 403.547 60.2494 403.815 60.3302C404.087 60.4127 404.338 60.1682 404.263 59.894C403.471 57.0119 402.679 54.1298 401.884 51.2445C401.841 51.0879 401.717 50.9668 401.557 50.9363C401.174 50.8636 400.666 50.7985 400.283 50.7348C400.117 50.707 399.986 50.5831 399.941 50.4216C399.85 50.0913 399.759 49.7611 399.668 49.4313C399.579 49.1068 399.867 48.7977 400.199 48.8591C400.544 48.9224 400.944 48.9956 401.293 49.062C401.633 49.1266 401.716 48.9615 401.413 48.795C401.334 48.7515 401.258 48.7088 401.194 48.668C401.057 48.5818 400.905 48.4719 400.747 48.4338C390.932 46.0679 382.071 48.2134 373.916 51.866C365.69 55.5536 357.89 60.7762 349.664 64.4633C341.551 68.0997 333.031 70.2388 323.286 67.9328C323.103 67.8897 322.937 68.0571 322.986 68.2375C323.01 68.3218 323.077 68.3869 323.162 68.408C323.609 68.5175 324.055 68.6166 324.497 68.7068C324.665 68.7409 324.799 68.8652 324.844 69.0295C324.936 69.362 325.028 69.6945 325.119 70.027C325.208 70.3482 324.924 70.6655 324.591 70.6341C324.315 70.6076 324.017 70.5834 323.739 70.5542C323.397 70.5183 323.094 70.8454 323.181 71.1761C323.918 73.9864 324.431 76.6456 325.198 79.4779C325.24 79.634 325.365 79.7556 325.524 79.7897C326.106 79.9149 327.068 80.0814 327.655 80.1891C327.823 80.22 327.957 80.3448 328.002 80.509C328.094 80.8415 328.185 81.174 328.277 81.5065C328.365 81.8278 328.084 82.128 327.757 82.0602C327.236 81.9525 326.577 81.813 326.06 81.6999C325.753 81.6326 325.074 81.3719 325.247 81.6335C325.299 81.7125 325.543 81.9871 325.635 82.0095C335.505 84.4218 345.443 82.5444 353.629 78.8779C361.855 75.1904 369.655 69.9682 377.881 66.2806C386.018 62.6334 394.565 60.4926 404.346 62.8318C404.491 62.8668 404.624 62.7357 404.584 62.5917ZM398.294 48.4957C398.465 48.5248 398.602 48.6509 398.648 48.817C398.741 49.1517 398.833 49.4865 398.925 49.8212C399.013 50.1402 398.736 50.4413 398.409 50.3884C397.844 50.2973 397.282 50.2206 396.725 50.1582C396.54 50.1375 396.386 50.0079 396.337 49.8293C396.242 49.4842 396.147 49.1387 396.052 48.7932C395.968 48.489 396.217 48.1964 396.531 48.2345C397.114 48.3059 397.702 48.3929 398.294 48.4957ZM394.684 48.0604C394.874 48.073 395.033 48.2049 395.084 48.3875C395.18 48.7353 395.276 49.0835 395.372 49.4317C395.454 49.7315 395.213 50.0222 394.901 50.0043C394.354 49.972 393.809 49.954 393.267 49.9486C393.064 49.9468 392.886 49.8122 392.833 49.617C392.734 49.2612 392.637 48.9058 392.538 48.55C392.46 48.2646 392.675 47.9828 392.973 47.9877C393.54 47.9972 394.111 48.0209 394.684 48.0604ZM391.177 48.003C391.384 47.9963 391.567 48.1327 391.622 48.331C391.721 48.6886 391.819 49.0463 391.917 49.4034C391.995 49.6848 391.786 49.9639 391.494 49.9756C390.959 49.9971 390.427 50.0307 389.899 50.0761C389.68 50.0949 389.479 49.9567 389.421 49.7463C389.321 49.3841 389.221 49.022 389.122 48.6599C389.048 48.3916 389.234 48.1215 389.513 48.0986C390.064 48.0537 390.619 48.0218 391.177 48.003ZM387.765 48.283C387.986 48.2543 388.194 48.3934 388.253 48.6079C388.353 48.9709 388.453 49.3339 388.553 49.6965C388.626 49.9612 388.446 50.2282 388.173 50.2645C387.651 50.3341 387.132 50.4144 386.617 50.5059C386.385 50.5468 386.16 50.4068 386.098 50.1815C385.997 49.8158 385.897 49.4506 385.796 49.0853C385.726 48.8327 385.888 48.5742 386.147 48.5289C386.683 48.4351 387.223 48.3539 387.765 48.283ZM384.441 48.8659C384.673 48.8147 384.904 48.9556 384.967 49.184C385.067 49.5497 385.168 49.9154 385.269 50.2811C385.338 50.5311 385.181 50.7864 384.927 50.8425C384.416 50.9551 383.908 51.0785 383.402 51.2104C383.162 51.2732 382.915 51.1328 382.849 50.8941C382.748 50.5279 382.647 50.1613 382.546 49.7952C382.48 49.556 382.622 49.3083 382.863 49.2455C383.386 49.1091 383.912 48.9821 384.441 48.8659ZM381.195 49.7117C381.435 49.6395 381.688 49.7804 381.754 50.0218C381.855 50.3879 381.956 50.7545 382.057 51.1207C382.122 51.3572 381.985 51.6013 381.749 51.6722C381.246 51.8238 380.745 51.9836 380.246 52.15C380 52.2322 379.734 52.0922 379.665 51.8427C379.565 51.4765 379.464 51.1104 379.363 50.7447C379.3 50.5163 379.426 50.2784 379.651 50.2031C380.162 50.0316 380.677 49.8674 381.195 49.7117ZM378.011 50.7859C378.258 50.694 378.529 50.834 378.599 51.0866C378.699 51.4518 378.8 51.8175 378.901 52.1828C378.963 52.4081 378.841 52.6427 378.622 52.7244C378.127 52.9079 377.634 53.0982 377.143 53.2961C376.892 53.397 376.607 53.2584 376.535 52.9981C376.435 52.6342 376.335 52.2703 376.234 51.9059C376.174 51.6879 376.286 51.4595 376.497 51.3742C377 51.1705 377.505 50.9744 378.011 50.7859ZM374.072 52.4085C374.402 52.2618 374.732 52.1159 375.062 51.9728C375.312 51.8647 375.6 52.0033 375.672 52.2649C375.772 52.6288 375.872 52.9923 375.972 53.3562C376.032 53.5729 375.922 53.8 375.715 53.8888C375.346 54.0468 374.978 54.2088 374.613 54.373C374.391 54.4722 374.17 54.5727 373.949 54.6741C373.696 54.7907 373.397 54.6539 373.323 54.3851C373.223 54.0225 373.123 53.66 373.023 53.2974C372.966 53.0874 373.067 52.8662 373.265 52.7747C373.533 52.6508 373.802 52.5288 374.072 52.4085ZM371.675 53.5285C371.928 53.4051 372.23 53.5424 372.304 53.8125C372.404 54.1738 372.504 54.535 372.603 54.8962C372.661 55.1053 372.559 55.3256 372.363 55.4203C371.88 55.6536 371.397 55.8915 370.917 56.1342C370.662 56.263 370.351 56.127 370.276 55.8524C370.177 55.4925 370.077 55.1331 369.978 54.7732C369.922 54.5682 370.018 54.3515 370.209 54.2554C370.697 54.0086 371.186 53.7663 371.675 53.5285ZM368.64 55.06C368.894 54.9276 369.205 55.0631 369.281 55.3386C369.38 55.6981 369.479 56.0579 369.578 56.4178C369.635 56.6224 369.54 56.8378 369.351 56.9356C368.87 57.186 368.39 57.4391 367.91 57.6953C367.655 57.8313 367.338 57.6966 367.262 57.4184C367.163 57.0595 367.064 56.7009 366.965 56.342C366.91 56.1405 367.001 55.9274 367.186 55.8286C367.671 55.5693 368.155 55.3131 368.64 55.06ZM365.629 56.6709C365.883 56.5318 366.202 56.6664 366.279 56.9455C366.377 57.304 366.476 57.6625 366.575 58.0206C366.63 58.2216 366.539 58.4334 366.356 58.5335C365.877 58.7947 365.399 59.0567 364.92 59.3206C364.665 59.4615 364.344 59.3273 364.267 59.0464C364.168 58.6888 364.07 58.3311 363.971 57.9731C363.916 57.7738 364.005 57.5629 364.186 57.4624C364.666 57.1977 365.147 56.9338 365.629 56.6709ZM362.63 58.3244C362.886 58.1822 363.207 58.3163 363.285 58.5972C363.383 58.9544 363.482 59.312 363.58 59.6692C363.635 59.8684 363.546 60.0793 363.365 60.1798C362.885 60.4464 362.407 60.7129 361.928 60.9795C361.672 61.1213 361.352 60.9871 361.274 60.7062C361.176 60.3486 361.077 59.9909 360.979 59.6329C360.924 59.4336 361.013 59.2227 361.194 59.1222C361.673 58.8566 362.152 58.5905 362.63 58.3244ZM359.641 59.9847C359.896 59.8429 360.218 59.977 360.296 60.2579C360.394 60.6156 360.493 60.9727 360.591 61.3299C360.646 61.5291 360.557 61.74 360.375 61.8406C359.895 62.1062 359.414 62.3696 358.933 62.6321C358.679 62.7712 358.361 62.6366 358.284 62.3575C358.185 61.9994 358.086 61.6413 357.988 61.2832C357.932 61.0822 358.023 60.8695 358.207 60.7699C358.685 60.5106 359.164 60.2485 359.641 59.9847ZM356.65 61.6126C356.906 61.4762 357.223 61.6108 357.3 61.8895C357.399 62.248 357.497 62.6065 357.596 62.965C357.652 63.1665 357.561 63.3792 357.377 63.4779C356.894 63.7368 356.41 63.9931 355.925 64.247C355.671 64.3807 355.358 64.2452 355.282 63.9688C355.183 63.6094 355.084 63.25 354.985 62.8906C354.929 62.6868 355.023 62.4723 355.21 62.3741C355.69 62.1223 356.171 61.8688 356.65 61.6126ZM353.648 63.1746C353.903 63.0463 354.212 63.1822 354.288 63.4564C354.387 63.8167 354.486 64.1775 354.585 64.5378C354.642 64.7424 354.547 64.9587 354.356 65.0552C353.869 65.3024 353.379 65.5456 352.888 65.7848C352.635 65.9082 352.333 65.7713 352.258 65.5007C352.159 65.1395 352.059 64.7779 351.96 64.4166C351.902 64.2075 352.002 63.9877 352.198 63.893C352.681 63.6579 353.165 63.4182 353.648 63.1746ZM349.816 65.0054C350.141 64.8604 350.464 64.7119 350.787 64.5625C351.04 64.4449 351.338 64.5818 351.412 64.8501C351.512 65.2127 351.612 65.5757 351.712 65.9382C351.77 66.1482 351.668 66.369 351.47 66.4614C351.099 66.6338 350.728 66.8025 350.357 66.9694C350.13 67.0708 349.902 67.1718 349.674 67.2714C349.424 67.3809 349.136 67.2422 349.063 66.9797C348.963 66.6163 348.863 66.2523 348.763 65.8889C348.704 65.6726 348.813 65.446 349.019 65.3567C349.286 65.2405 349.551 65.1238 349.816 65.0054ZM347.425 66.0257C347.676 65.9243 347.961 66.063 348.032 66.3232C348.133 66.6876 348.233 67.0515 348.333 67.4154C348.393 67.6335 348.281 67.8624 348.071 67.9476C347.568 68.1522 347.064 68.3501 346.559 68.5395C346.312 68.6319 346.04 68.4919 345.971 68.2388C345.87 67.8731 345.769 67.5079 345.669 67.1422C345.607 66.9169 345.728 66.6827 345.947 66.6006C346.44 66.4161 346.933 66.2241 347.425 66.0257ZM344.321 67.1803C344.568 67.0964 344.836 67.2359 344.905 67.4868C345.006 67.852 345.107 68.2173 345.207 68.5825C345.27 68.81 345.145 69.0474 344.921 69.1237C344.409 69.2973 343.894 69.4638 343.376 69.6204C343.136 69.6936 342.883 69.5527 342.817 69.3108C342.716 68.9447 342.615 68.5785 342.514 68.2123C342.449 67.9759 342.586 67.7313 342.822 67.6604C343.324 67.5092 343.823 67.349 344.321 67.1803ZM341.17 68.1311C341.41 68.0679 341.658 68.2083 341.724 68.4475C341.825 68.8136 341.926 69.1802 342.027 69.5464C342.093 69.7851 341.952 70.0319 341.712 70.0952C341.188 70.2334 340.663 70.3608 340.135 70.4788C339.902 70.5309 339.67 70.3904 339.607 70.1611C339.506 69.795 339.405 69.4293 339.304 69.0636C339.236 68.815 339.391 68.5601 339.644 68.5036C340.155 68.3887 340.663 68.2648 341.17 68.1311ZM337.957 68.845C338.188 68.8038 338.413 68.9433 338.476 69.169C338.576 69.5343 338.677 69.9 338.778 70.2652C338.847 70.5179 338.686 70.7763 338.427 70.8221C337.891 70.9172 337.352 71.0025 336.81 71.0761C336.589 71.1061 336.38 70.9666 336.321 70.7516C336.221 70.3886 336.121 70.0256 336.021 69.6622C335.948 69.3983 336.127 69.1318 336.399 69.0945C336.922 69.0218 337.441 68.9379 337.957 68.845ZM334.676 69.2902C334.895 69.2704 335.098 69.4086 335.156 69.62C335.256 69.9825 335.356 70.3447 335.456 70.7072C335.529 70.9747 335.344 71.2443 335.067 71.2686C334.516 71.3161 333.962 71.3507 333.404 71.3718C333.197 71.3794 333.013 71.243 332.958 71.0438C332.859 70.6848 332.76 70.3263 332.662 69.9677C332.584 69.6877 332.79 69.41 333.081 69.3965C333.615 69.3723 334.147 69.3373 334.676 69.2902ZM326.296 70.9096C326.125 70.8804 325.987 70.7543 325.941 70.5874C325.848 70.2522 325.756 69.917 325.663 69.5814C325.576 69.2637 325.851 68.9626 326.178 69.0138C326.742 69.1013 327.303 69.1744 327.86 69.2341C328.045 69.2538 328.2 69.3839 328.25 69.563C328.345 69.9098 328.441 70.2563 328.536 70.6027C328.619 70.9056 328.373 71.1981 328.06 71.1618C327.475 71.094 326.888 71.0097 326.296 70.9096ZM329.901 71.3282C329.711 71.3166 329.549 71.1842 329.499 71.0007C329.403 70.6525 329.307 70.3043 329.211 69.9561C329.129 69.6572 329.368 69.3669 329.679 69.3839C330.227 69.4136 330.77 69.4293 331.311 69.432C331.514 69.4333 331.693 69.5679 331.747 69.7636C331.845 70.119 331.943 70.4743 332.041 70.8297C332.12 71.1151 331.904 71.3969 331.607 71.3924C331.043 71.3843 330.475 71.3632 329.901 71.3282ZM329.451 82.3878C329.279 82.3591 329.141 82.233 329.095 82.0661C329.003 81.7304 328.91 81.3952 328.818 81.06C328.73 80.7419 329.005 80.4413 329.332 80.492C329.896 80.5799 330.457 80.6526 331.014 80.7127C331.2 80.7325 331.355 80.8626 331.404 81.0416C331.499 81.3876 331.594 81.7336 331.69 82.0791C331.773 82.3829 331.526 82.6754 331.212 82.6386C330.629 82.5709 330.042 82.4874 329.451 82.3878ZM333.055 82.8042C332.865 82.7921 332.705 82.6602 332.654 82.4771C332.558 82.1284 332.462 81.7802 332.366 81.4316C332.284 81.1323 332.524 80.842 332.834 80.859C333.382 80.8891 333.926 80.9048 334.466 80.9075C334.67 80.9084 334.849 81.0434 334.903 81.2391C335.001 81.5949 335.099 81.9512 335.197 82.307C335.275 82.592 335.061 82.8733 334.765 82.8697C334.199 82.8625 333.629 82.8415 333.055 82.8042ZM336.56 82.8491C336.352 82.8572 336.167 82.7207 336.112 82.5206C336.013 82.1634 335.915 81.8063 335.817 81.4491C335.739 81.1682 335.947 80.8895 336.239 80.8765C336.773 80.8532 337.303 80.8173 337.83 80.7693C338.049 80.7495 338.252 80.8877 338.311 81.0991C338.41 81.4607 338.51 81.8229 338.61 82.185C338.683 82.4529 338.498 82.7225 338.22 82.7463C337.67 82.793 337.117 82.8271 336.56 82.8491ZM339.964 82.5529C339.743 82.5821 339.535 82.443 339.476 82.229C339.376 81.8646 339.276 81.5007 339.176 81.1368C339.103 80.8734 339.282 80.6068 339.553 80.5696C340.075 80.4974 340.594 80.4152 341.111 80.3215C341.342 80.2797 341.569 80.4197 341.631 80.6459C341.732 81.0116 341.833 81.3773 341.933 81.743C342.003 81.9947 341.843 82.2523 341.585 82.299C341.049 82.3963 340.508 82.4816 339.964 82.5529ZM343.289 81.9575C343.056 82.0095 342.824 81.8686 342.761 81.6393C342.66 81.2736 342.559 80.9079 342.459 80.5418C342.39 80.2932 342.546 80.0388 342.798 79.9818C343.309 79.8669 343.817 79.7431 344.324 79.6098C344.565 79.5465 344.813 79.6865 344.879 79.9257C344.98 80.2923 345.08 80.6584 345.181 81.0246C345.247 81.2633 345.106 81.5106 344.866 81.5738C344.343 81.7116 343.817 81.8395 343.289 81.9575ZM346.535 81.1004C346.294 81.1745 346.04 81.0336 345.973 80.7913C345.872 80.4247 345.771 80.0585 345.67 79.6924C345.605 79.4568 345.741 79.2131 345.976 79.1418C346.478 78.9888 346.98 78.8286 347.478 78.6608C347.725 78.5777 347.993 78.7177 348.062 78.9681C348.162 79.3334 348.263 79.6986 348.364 80.0639C348.426 80.2918 348.301 80.5297 348.076 80.6055C347.564 80.7778 347.05 80.9429 346.535 81.1004ZM349.709 80.0199C349.462 80.1123 349.19 79.9723 349.121 79.7193C349.02 79.3536 348.919 78.9879 348.818 78.6222C348.757 78.3978 348.878 78.1631 349.097 78.0815C349.591 77.8961 350.084 77.7045 350.575 77.5066C350.826 77.4052 351.111 77.5439 351.182 77.8041C351.283 78.1681 351.383 78.532 351.483 78.8959C351.543 79.114 351.431 79.3428 351.221 79.4285C350.72 79.6318 350.216 79.8297 349.709 80.0199ZM353.515 78.449C353.288 78.5504 353.06 78.6513 352.832 78.7509C352.582 78.86 352.293 78.7218 352.221 78.4593C352.121 78.0958 352.021 77.7319 351.921 77.3684C351.861 77.1522 351.971 76.9256 352.177 76.8358C352.443 76.7205 352.709 76.6025 352.974 76.4845C353.299 76.3395 353.622 76.1915 353.944 76.0416C354.197 75.924 354.496 76.0613 354.569 76.3297C354.669 76.6918 354.769 77.0539 354.869 77.4156C354.927 77.6265 354.824 77.8481 354.625 77.9406C354.256 78.112 353.885 78.282 353.515 78.449ZM356.042 77.2634C355.789 77.3864 355.487 77.2495 355.413 76.9794C355.313 76.6182 355.213 76.257 355.114 75.8957C355.056 75.6866 355.158 75.4663 355.354 75.3716C355.838 75.137 356.32 74.8969 356.802 74.6532C357.057 74.5249 357.366 74.6604 357.442 74.935C357.541 75.2949 357.64 75.6552 357.74 76.0156C357.796 76.2206 357.7 76.4369 357.51 76.5334C357.021 76.7806 356.531 77.0243 356.042 77.2634ZM359.079 75.7243C358.825 75.8572 358.513 75.7212 358.438 75.4457C358.339 75.0863 358.239 74.7268 358.14 74.3679C358.084 74.1632 358.179 73.9479 358.367 73.8496C358.848 73.5997 359.327 73.3452 359.806 73.0886C360.061 72.9513 360.378 73.0863 360.455 73.365C360.554 73.7235 360.653 74.0825 360.752 74.4415C360.807 74.642 360.716 74.8543 360.533 74.9534C360.049 75.2141 359.564 75.4708 359.079 75.7243ZM362.092 74.1099C361.837 74.2494 361.518 74.1148 361.441 73.8352C361.342 73.4772 361.244 73.1195 361.145 72.7615C361.09 72.5609 361.18 72.3486 361.364 72.249C361.843 71.987 362.321 71.724 362.8 71.4606C363.055 71.3197 363.375 71.4543 363.452 71.7343C363.551 72.0924 363.65 72.4509 363.749 72.809C363.804 73.0087 363.714 73.2196 363.533 73.3197C363.053 73.5849 362.572 73.8478 362.092 74.1099ZM365.086 72.4572C364.831 72.5995 364.509 72.4653 364.432 72.1844C364.333 71.8268 364.235 71.4696 364.136 71.1124C364.081 70.9132 364.17 70.7023 364.352 70.6013C364.831 70.3352 365.31 70.0687 365.789 69.8022C366.044 69.6604 366.365 69.7945 366.442 70.075C366.54 70.4331 366.639 70.7907 366.738 71.1483C366.793 71.348 366.704 71.5589 366.522 71.6594C366.043 71.925 365.564 72.1911 365.086 72.4572ZM368.074 70.8006C367.819 70.941 367.499 70.8068 367.422 70.5264C367.323 70.1688 367.224 69.8107 367.126 69.4526C367.071 69.2529 367.16 69.0416 367.342 68.9411C367.822 68.6768 368.302 68.4125 368.783 68.1495C369.038 68.0104 369.356 68.145 369.433 68.4241C369.532 68.7827 369.63 69.1407 369.729 69.4993C369.784 69.6998 369.694 69.9121 369.51 70.0122C369.031 70.2738 368.553 70.5372 368.074 70.8006ZM371.064 69.1735C370.809 69.3099 370.493 69.1748 370.416 68.8966C370.317 68.5381 370.218 68.1791 370.12 67.8206C370.064 67.6187 370.156 67.406 370.34 67.3068C370.825 67.0479 371.309 66.7913 371.795 66.5382C372.048 66.4058 372.359 66.5418 372.436 66.8168C372.535 67.1767 372.634 67.5366 372.733 67.8965C372.789 68.1006 372.694 68.316 372.506 68.4143C372.024 68.6642 371.544 68.9177 371.064 69.1735ZM374.07 67.6129C373.816 67.7407 373.507 67.6043 373.432 67.3306C373.333 66.9703 373.234 66.61 373.134 66.2497C373.077 66.0441 373.174 65.827 373.365 65.7309C373.853 65.485 374.341 65.2409 374.831 65.0027C375.084 64.8797 375.385 65.0166 375.459 65.2863C375.559 65.6488 375.659 66.0109 375.759 66.3735C375.816 66.5817 375.716 66.8011 375.521 66.8963C375.037 67.1323 374.554 67.371 374.07 67.6129ZM377.767 65.8516C377.545 65.9504 377.325 66.0509 377.103 66.1527C376.85 66.2694 376.551 66.1321 376.477 65.8638C376.377 65.5016 376.278 65.1395 376.178 64.7774C376.12 64.567 376.223 64.3453 376.422 64.2533C376.689 64.1295 376.957 64.0074 377.226 63.8872C377.556 63.74 377.886 63.5941 378.216 63.4515C378.467 63.3429 378.754 63.4815 378.826 63.7436C378.926 64.107 379.026 64.4709 379.127 64.8344C379.186 65.0511 379.076 65.2782 378.869 65.367C378.501 65.5254 378.132 65.687 377.767 65.8516ZM380.297 64.7743C380.046 64.8757 379.761 64.737 379.689 64.4768C379.589 64.1129 379.489 63.7494 379.389 63.3855C379.329 63.167 379.442 62.9381 379.652 62.8529C380.155 62.6505 380.66 62.4535 381.166 62.2646C381.412 62.1722 381.684 62.3122 381.753 62.5652C381.854 62.9305 381.955 63.2957 382.056 63.661C382.117 63.8863 381.996 64.1214 381.776 64.2026C381.282 64.3861 380.789 64.5768 380.297 64.7743ZM383.402 63.6287C383.154 63.7122 382.887 63.5722 382.818 63.3218C382.718 62.9561 382.617 62.5904 382.516 62.2247C382.453 61.9972 382.578 61.7598 382.803 61.684C383.316 61.5107 383.831 61.3465 384.349 61.1917C384.59 61.1199 384.841 61.2608 384.908 61.5018C385.009 61.8684 385.109 62.2345 385.21 62.6007C385.276 62.8376 385.137 63.0826 384.901 63.1531C384.399 63.3025 383.899 63.4618 383.402 63.6287ZM386.556 62.6886C386.316 62.7515 386.069 62.611 386.003 62.3723C385.902 62.0061 385.802 61.64 385.701 61.2734C385.634 61.0342 385.776 60.787 386.017 60.7241C386.541 60.5877 387.067 60.4612 387.595 60.345C387.827 60.2938 388.058 60.4343 388.121 60.6631C388.222 61.0288 388.323 61.3941 388.424 61.7598C388.492 62.0093 388.335 62.2646 388.082 62.3207C387.57 62.4338 387.062 62.5567 386.556 62.6886ZM389.771 61.9841C389.54 62.025 389.314 61.8854 389.252 61.6597C389.151 61.2945 389.051 60.9292 388.95 60.5635C388.881 60.3109 389.042 60.0529 389.301 60.0075C389.837 59.9138 390.377 59.8321 390.919 59.7616C391.141 59.7325 391.348 59.872 391.408 60.0865C391.508 60.4495 391.608 60.8125 391.708 61.176C391.78 61.4399 391.6 61.7068 391.328 61.7432C390.806 61.8132 390.287 61.8931 389.771 61.9841ZM393.056 61.5552C392.838 61.574 392.636 61.4363 392.578 61.2254C392.479 60.8637 392.379 60.5016 392.279 60.1395C392.205 59.8711 392.392 59.6006 392.67 59.5781C393.222 59.5328 393.776 59.5005 394.335 59.4821C394.542 59.4754 394.725 59.6118 394.779 59.8101C394.878 60.1673 394.976 60.5249 395.075 60.8821C395.152 61.1639 394.943 61.443 394.651 61.4547C394.116 61.4757 393.585 61.5099 393.056 61.5552ZM396.421 61.4273C396.218 61.425 396.04 61.2904 395.987 61.0957C395.889 60.7398 395.791 60.384 395.693 60.0286C395.614 59.7428 395.83 59.461 396.127 59.4664C396.693 59.4767 397.264 59.5014 397.837 59.5395C398.027 59.5521 398.188 59.684 398.239 59.8671C398.334 60.2149 398.43 60.5626 398.526 60.9104C398.608 61.2101 398.367 61.5009 398.056 61.4825C397.508 61.4506 396.963 61.4322 396.421 61.4273ZM399.88 61.6368C399.695 61.6162 399.541 61.4865 399.491 61.3079C399.396 60.9624 399.301 60.6174 399.206 60.2718C399.122 59.9676 399.371 59.6746 399.686 59.7132C400.269 59.7841 400.856 59.8711 401.449 59.9739C401.619 60.0035 401.757 60.1291 401.803 60.2956C401.895 60.6304 401.987 60.9651 402.079 61.2999C402.167 61.6184 401.89 61.9195 401.563 61.867C400.998 61.7759 400.437 61.6992 399.88 61.6368Z" stroke="black"/>
</g>
<path d="M325.809 112.277C325.988 111.708 326.666 111.47 327.174 111.786C336.614 117.664 346.372 118.923 358.583 119.995C359.058 120.036 359.419 120.437 359.408 120.911L359.278 126.231C359.266 126.749 358.816 127.15 358.297 127.102C346.652 126.021 335.067 124.17 324.757 117.822C324.41 117.609 324.256 117.187 324.379 116.799L325.809 112.277Z" fill="black"/>
<path d="M402.421 112.254C402.235 111.693 401.565 111.461 401.063 111.776C391.622 117.706 383.465 119.035 371.199 120.15C370.728 120.193 370.366 120.592 370.376 121.064L370.49 126.39C370.501 126.91 370.954 127.312 371.474 127.263C383.14 126.142 393.184 124.216 403.546 117.831C403.897 117.614 404.052 117.185 403.923 116.794L402.421 112.254Z" fill="black"/>
<path d="M367.601 120.115H362.196C361.699 120.115 361.296 120.517 361.296 121.013V126.397C361.296 126.893 361.699 127.295 362.196 127.295H367.601C368.098 127.295 368.501 126.893 368.501 126.397V121.013C368.501 120.517 368.098 120.115 367.601 120.115Z" fill="black"/>
</g>
<path d="M449.175 96.5V53.3H455.835L487.515 90.98V53.3H492.375V96.5H485.715L454.035 58.82V96.5H449.175ZM499.217 96.5V60.5C499.217 59.18 499.537 57.98 500.177 56.9C500.817 55.78 501.677 54.9 502.757 54.26C503.877 53.62 505.097 53.3 506.417 53.3H535.217C536.537 53.3 537.737 53.62 538.817 54.26C539.937 54.9 540.817 55.78 541.457 56.9C542.097 57.98 542.417 59.18 542.417 60.5V96.5H537.557V80.72H504.077V96.5H499.217ZM504.077 75.86H537.557V60.5C537.557 59.86 537.317 59.32 536.837 58.88C536.397 58.4 535.857 58.16 535.217 58.16H506.417C505.777 58.16 505.217 58.4 504.737 58.88C504.297 59.32 504.077 59.86 504.077 60.5V75.86ZM556.334 96.5C555.014 96.5 553.794 96.18 552.674 95.54C551.594 94.9 550.734 94.04 550.094 92.96C549.454 91.84 549.134 90.62 549.134 89.3V53.3H553.994V89.3C553.994 89.94 554.214 90.5 554.654 90.98C555.134 91.42 555.694 91.64 556.334 91.64H585.134C585.774 91.64 586.314 91.42 586.754 90.98C587.234 90.5 587.474 89.94 587.474 89.3V53.3H592.334V89.3C592.334 90.62 592.014 91.84 591.374 92.96C590.734 94.04 589.854 94.9 588.734 95.54C587.654 96.18 586.454 96.5 585.134 96.5H556.334ZM615.981 96.5V58.16H596.781V53.3H639.981V58.16H620.841V96.5H615.981ZM645.068 96.5V53.3H649.988V96.5H645.068ZM664.5 96.5C663.18 96.5 661.96 96.18 660.84 95.54C659.76 94.9 658.9 94.04 658.26 92.96C657.62 91.84 657.3 90.62 657.3 89.3V60.5C657.3 59.18 657.62 57.98 658.26 56.9C658.9 55.78 659.76 54.9 660.84 54.26C661.96 53.62 663.18 53.3 664.5 53.3H700.38V58.16H664.5C663.86 58.16 663.3 58.4 662.82 58.88C662.38 59.32 662.16 59.86 662.16 60.5V89.3C662.16 89.94 662.38 90.5 662.82 90.98C663.3 91.42 663.86 91.64 664.5 91.64H700.38V96.5H664.5ZM706.756 96.5V60.5C706.756 59.18 707.076 57.98 707.716 56.9C708.356 55.78 709.216 54.9 710.296 54.26C711.416 53.62 712.636 53.3 713.956 53.3H742.756C744.076 53.3 745.276 53.62 746.356 54.26C747.476 54.9 748.356 55.78 748.996 56.9C749.636 57.98 749.956 59.18 749.956 60.5V96.5H745.096V80.72H711.616V96.5H706.756ZM711.616 75.86H745.096V60.5C745.096 59.86 744.856 59.32 744.376 58.88C743.936 58.4 743.396 58.16 742.756 58.16H713.956C713.316 58.16 712.756 58.4 712.276 58.88C711.836 59.32 711.616 59.86 711.616 60.5V75.86Z" fill="#0B0D0B"/>
<path d="M15.2514 26.3321C16.3751 28.4904 17.8365 33.066 19.6357 40.0587C20.8118 38.1311 22.1242 36.7902 23.5729 36.0359C25.0217 35.2817 26.6086 35.2259 28.3337 35.8685C30.0587 36.5112 31.7602 38.4439 33.438 41.6666C35.1005 44.8598 35.645 48.0713 35.0717 51.301C34.528 54.5154 32.97 56.7921 30.3977 58.1313C28.8602 58.9318 27.1221 59.3106 25.1832 59.2678C22.596 61.5167 20.2824 63.1722 18.2423 64.2343C18.0483 64.2226 17.7127 63.7584 17.2355 62.8419C16.1118 60.6835 14.5602 55.61 12.5807 47.6213C10.6308 39.6172 8.99395 34.3438 7.67015 31.8011C7.3315 31.1507 6.97868 30.5452 6.61169 29.9846C9.064 27.6932 11.5319 25.901 14.0155 24.608C14.3468 24.8113 14.7588 25.386 15.2514 26.3321ZM21.9348 42.5258C21.5209 42.7413 21.0733 43.181 20.5922 43.8449C22.1686 49.9766 23.3458 54.0424 24.124 56.0424C24.7948 56.0314 25.3519 55.9105 25.7954 55.6796C26.8006 55.1562 27.0519 53.6537 26.5491 51.1721C26.0758 48.6752 25.3697 46.5249 24.4307 44.7213C23.4764 42.8882 22.6444 42.1564 21.9348 42.5258ZM43.0394 29.7343C43.7167 31.0352 44.4016 33.2529 45.0939 36.3874C45.771 39.4924 46.325 41.4587 46.756 42.2866C47.187 43.1145 47.5651 43.4437 47.8903 43.2744C48.2155 43.1051 48.7299 42.6494 49.4334 41.9073L49.7402 41.5221L51.693 43.324C51.0879 44.6161 50.1854 45.9503 48.9854 47.3267C47.8149 48.6876 46.6236 49.6837 45.4114 50.3148C44.1991 50.9459 43.0612 51.1062 41.9976 50.7956C40.9635 50.4696 40.1155 49.6709 39.4536 48.3996C38.7763 47.0987 38.1075 44.9478 37.4471 41.947C36.8009 38.9012 36.2931 37.0235 35.9236 36.3139C35.3541 35.2199 34.431 34.3852 33.1543 33.8098L32.5455 33.5066L32.286 32.6834C33.5772 31.4099 36.4402 29.6187 40.8752 27.3097C41.6253 27.5956 42.3467 28.4038 43.0394 29.7343ZM36.4576 25.2128C35.1271 25.9055 33.8928 26.0971 32.7546 25.7877C31.646 25.463 30.807 24.7536 30.2374 23.6597C29.6525 22.5361 29.6259 21.3662 30.1576 20.1499C30.7035 18.8886 31.6417 17.9116 32.9722 17.2189C34.3027 16.5262 35.4991 16.2979 36.5615 16.534C37.6239 16.77 38.4476 17.4498 39.0325 18.5733C39.6175 19.6969 39.6672 20.9111 39.1816 22.2162C38.7256 23.5058 37.8176 24.5047 36.4576 25.2128ZM61.6789 41.8454C59.3728 43.0461 57.1773 43.2684 55.0926 42.5123C52.9924 41.7267 51.2497 40.0034 49.8643 37.3424C48.1711 34.0902 47.7004 30.8402 48.4524 27.5926C49.1889 24.3155 51.1242 21.8611 54.2582 20.2294L56.3463 19.3678C56.9481 18.7914 57.5595 18.3416 58.1804 18.0183C59.6587 17.2486 60.97 17.2048 62.1142 17.8868C63.2881 18.5534 64.4042 19.795 65.4627 21.6115C66.6737 20.9058 67.7563 20.0979 68.7105 19.1878L69.239 18.6871C69.5537 18.7863 70.0248 19.3303 70.6523 20.3189L70.9506 20.7836C69.9741 22.1564 68.6251 23.5352 66.9034 24.9201C67.8846 28.3928 67.9761 31.7085 67.178 34.8674C66.3799 38.0263 64.5469 40.3523 61.6789 41.8454ZM58.1096 32.8242C59.5412 35.5739 60.9518 36.587 62.3414 35.8635C63.3171 35.3555 63.9843 34.219 64.343 32.4538C64.7314 30.6733 64.6559 28.796 64.1167 26.8219C61.1009 28.392 58.8388 27.7283 57.3303 24.8308C57.0686 24.3281 56.8436 23.7876 56.6552 23.2093C56.3595 23.3632 56.1609 23.523 56.0592 23.6887C55.8336 24.4825 55.9077 25.8157 56.2812 27.6881C56.6689 29.5156 57.2784 31.2276 58.1096 32.8242Z" fill="black"/>
</svg>
