<svg width="25" height="25" viewBox="0 0 25 25" fill="none" xmlns="http://www.w3.org/2000/svg">
<path d="M24.6168 22.4906L18.9495 16.8232C20.3139 15.0068 21.0505 12.7958 21.048 10.524C21.048 4.7211 16.3269 0 10.524 0C4.7211 0 0 4.7211 0 10.524C0 16.3269 4.7211 21.048 10.524 21.048C12.7958 21.0505 15.0068 20.3139 16.8232 18.9495L22.4906 24.6168C22.7775 24.8733 23.1516 25.0102 23.5363 24.9994C23.9209 24.9886 24.2869 24.831 24.559 24.559C24.831 24.2869 24.9886 23.9209 24.9994 23.5363C25.0102 23.1516 24.8733 22.7775 24.6168 22.4906ZM3.00686 10.524C3.00686 9.03725 3.44773 7.58389 4.27372 6.3477C5.09972 5.11151 6.27374 4.14802 7.64731 3.57907C9.02089 3.01011 10.5323 2.86125 11.9905 3.1513C13.4487 3.44135 14.7881 4.15729 15.8394 5.20858C16.8907 6.25987 17.6067 7.5993 17.8967 9.05748C18.1868 10.5157 18.0379 12.0271 17.4689 13.4007C16.9 14.7743 15.9365 15.9483 14.7003 16.7743C13.4641 17.6003 12.0108 18.0411 10.524 18.0411C8.53106 18.0388 6.62044 17.246 5.21122 15.8368C3.802 14.4276 3.00925 12.5169 3.00686 10.524Z" fill="#0B0D0B"/>
</svg>
